<?xml version="1.0" encoding="UTF-8"?>
<svg version="1.1" xmlns="http://www.w3.org/2000/svg" width="794" height="762">
<path d="M0 0 C262.02 0 524.04 0 794 0 C794 251.46 794 502.92 794 762 C531.98 762 269.96 762 0 762 C0 510.54 0 259.08 0 0 Z " fill="#48785E" transform="translate(0,0)"/>
<path d="M0 0 C1.3765979 0.01196411 1.3765979 0.01196411 2.78100586 0.02416992 C18.68739599 0.33787671 34.52624518 2.65011152 50.25 4.9375 C51.43638062 5.10922729 51.43638062 5.10922729 52.64672852 5.28442383 C53.38721436 5.39810303 54.1277002 5.51178223 54.890625 5.62890625 C55.52000977 5.72502197 56.14939453 5.8211377 56.79785156 5.92016602 C59.91612372 6.56421713 62.94079922 7.49382265 66 8.375 C68.44106784 8.98839397 70.88526998 9.5894133 73.33203125 10.1796875 C74.72209392 10.5191682 76.11206507 10.85902383 77.50195312 11.19921875 C79.65322451 11.72475374 81.80490283 12.24817613 83.95825195 12.76513672 C92.24134477 14.75733307 100.1554477 16.99777632 108 20.375 C110.37294036 21.23487194 112.74786823 22.08928408 115.125 22.9375 C146.96729777 34.70114539 174.30107188 51.13745987 198 75.375 C201.98245111 73.79880741 204.4472867 70.99120156 207.3125 67.9375 C218.81561632 56.11891241 232.81652384 47.61455263 247 39.375 C247.9266748 38.83214355 247.9266748 38.83214355 248.87207031 38.27832031 C292.80303591 12.81639072 348.59746949 0.86259519 399.125 0.0625 C399.87861816 0.04461426 400.63223633 0.02672852 401.40869141 0.00830078 C406.50853618 0.01660479 406.50853618 0.01660479 408.69697571 1.61250305 C410.36693101 3.87131828 410.36353075 5.14542558 410.34057617 7.93823242 C410.34034958 8.85896042 410.34012299 9.77968842 410.33988953 10.72831726 C410.32440567 11.71902725 410.30892181 12.70973724 410.29296875 13.73046875 C410.28872391 14.74724197 410.28447906 15.7640152 410.28010559 16.81159973 C410.26329997 20.06216812 410.22564382 23.3121187 410.1875 26.5625 C410.17245562 28.76496501 410.15876679 30.96743973 410.14648438 33.16992188 C410.11339036 38.57182572 410.06317223 43.97336872 410 49.375 C410.79696289 49.35928955 411.59392578 49.3435791 412.41503906 49.32739258 C416.0266205 49.26502411 419.63808861 49.22600261 423.25 49.1875 C425.13138672 49.14979492 425.13138672 49.14979492 427.05078125 49.11132812 C428.25605469 49.10166016 429.46132813 49.09199219 430.703125 49.08203125 C432.36843262 49.05846558 432.36843262 49.05846558 434.06738281 49.03442383 C437.43926082 49.42601306 438.59554613 50.02208825 441 52.375 C441.50139666 54.76278204 441.50139666 54.76278204 441.50336456 57.65244198 C441.51379555 58.75321793 441.52422654 59.85399389 441.53497362 60.9881267 C441.52605073 62.20230841 441.51712785 63.41649011 441.50793457 64.66746521 C441.51729451 66.59655522 441.51729451 66.59655522 441.52684355 68.56461674 C441.54359345 72.14175303 441.53526521 75.71846431 441.52289867 79.29560244 C441.51387335 83.15049775 441.52780539 87.00531836 441.53881836 90.86019897 C441.55663573 98.41510449 441.5527492 105.96985134 441.5411678 113.52476316 C441.53214569 119.66359198 441.53090416 125.80237625 441.53526306 131.94120979 C441.53587599 132.81388722 441.53648893 133.68656465 441.53712043 134.58568685 C441.5383993 136.35835434 441.53969615 138.13102181 441.5410108 139.90368927 C441.55242619 156.53931656 441.53928822 173.17485578 441.51780933 189.81046862 C441.49994061 204.09219574 441.50303873 218.37379281 441.52148438 232.65551758 C441.54287958 249.22879223 441.55132416 265.80198961 441.53903532 282.37527615 C441.53776109 284.14184223 441.53650361 285.90840833 441.53526306 287.67497444 C441.53433741 288.97884483 441.53433741 288.97884483 441.53339306 290.30905602 C441.52993586 296.4417428 441.5357765 302.57438066 441.54518127 308.70705986 C441.5563878 316.17910849 441.55338982 323.650989 441.5320583 331.12301832 C441.52152913 334.93720573 441.51745747 338.7511126 441.53065491 342.56529808 C441.54473029 346.69562781 441.52795053 350.8252462 441.50793457 354.95555115 C441.5213189 356.77347763 441.5213189 356.77347763 441.53497362 358.6281299 C441.51932714 360.28320546 441.51932714 360.28320546 441.50336456 361.97171688 C441.50271515 362.92546701 441.50206574 363.87921715 441.50139666 364.8618688 C440.84954 368.12914489 439.57242054 369.32403989 437 371.375 C434.42524719 371.94299316 434.42524719 371.94299316 431.4699707 372.04101562 C430.3543576 372.08803116 429.23874451 372.13504669 428.08932495 372.18348694 C426.88035553 372.21574875 425.67138611 372.24801056 424.42578125 372.28125 C422.53643356 372.3561692 422.53643356 372.3561692 420.60891724 372.43260193 C417.91005964 372.53916058 415.21179276 372.63948371 412.51242065 372.72970581 C405.51392046 372.96635689 398.51869778 373.28092491 391.5234375 373.59765625 C390.83691793 373.62830233 390.15039837 373.6589484 389.44307518 373.69052315 C374.97083246 374.34354807 360.75495224 375.73960545 346.42382812 377.87207031 C342.97936642 378.37803089 339.53137622 378.83178792 336.078125 379.2734375 C307.45230857 383.01269996 279.13000377 389.01194009 251.05712891 395.68823242 C249.13332617 396.12040437 247.19769557 396.50534418 245.25146484 396.8215332 C240.47602241 397.59418644 240.47602241 397.59418644 237.125 400.87890625 C236.75375 401.88824219 236.3825 402.89757812 236 403.9375 C231.1023744 415.11104475 223.14983761 420.85697608 212 425.375 C201.73663532 428.83146372 188.57674656 426.63572884 179 422.375 C176.02548687 420.64898653 173.52864775 418.69756852 171 416.375 C170.37351562 415.82714844 169.74703125 415.27929688 169.1015625 414.71484375 C164.93026216 410.85155082 161.89227644 406.78150411 160 401.375 C160 400.385 160 399.395 160 398.375 C158.53796143 398.19904297 158.53796143 398.19904297 157.04638672 398.01953125 C152.67766231 397.39403891 148.50485462 396.24013644 144.2578125 395.0625 C134.53377141 392.44026538 124.75362053 390.32244494 114.875 388.375 C114.02424896 388.20546814 113.17349792 388.03593628 112.29696655 387.86126709 C96.41580124 384.70529631 80.48339331 382.12750984 64.45166016 379.87207031 C61.19475266 379.40304615 57.94788773 378.8897752 54.69921875 378.3671875 C39.62600027 376.05288559 24.5027313 374.90403492 9.2878418 373.99731445 C6.20136316 373.8133264 3.11532257 373.62306196 0.02929688 373.43164062 C-2.00780502 373.3071692 -4.04491435 373.1828194 -6.08203125 373.05859375 C-7.07429718 372.99674896 -8.06656311 372.93490417 -9.08889771 372.8711853 C-14.07567454 372.56991309 -19.05388237 372.3304769 -24.04833984 372.20361328 C-25.01051926 372.17437271 -25.97269867 372.14513214 -26.96403503 372.11500549 C-28.77981228 372.06318104 -30.59612435 372.02689024 -32.41255188 372.00889587 C-33.2221788 371.98412674 -34.03180573 371.9593576 -34.8659668 371.93383789 C-35.57085739 371.92203995 -36.27574799 371.910242 -37.0019989 371.89808655 C-40.04657642 371.10100113 -41.0943007 369.88602703 -43 367.375 C-43.38756668 364.35145299 -43.53020939 361.69413993 -43.49206543 358.67169189 C-43.49674442 357.78370431 -43.50142341 356.89571672 -43.50624418 355.98082042 C-43.51719558 352.99896455 -43.49966986 350.01794905 -43.48242188 347.03613281 C-43.48460723 344.90076447 -43.48860319 342.76539732 -43.49427795 340.6300354 C-43.50285261 336.02790568 -43.49904516 331.42600898 -43.4858551 326.82389069 C-43.46554873 319.54582562 -43.47548325 312.26799635 -43.4901123 304.9899292 C-43.51917405 288.22129996 -43.50841868 271.45273948 -43.49741364 254.68409729 C-43.48774045 239.32742061 -43.48645912 223.97086655 -43.51729441 208.61421084 C-43.53067081 201.38073684 -43.52470298 194.14761514 -43.50392914 186.91416216 C-43.49494011 182.41012661 -43.50242039 177.9062267 -43.51434135 173.40220261 C-43.51647132 171.3156806 -43.51175585 169.22913849 -43.4996357 167.1426506 C-43.48400223 164.29015014 -43.49300915 161.43872363 -43.50793457 158.58624268 C-43.49220123 157.3529494 -43.49220123 157.3529494 -43.47615004 156.09474111 C-43.53484336 151.04389006 -44.50583266 147.572972 -47.04464293 143.19179225 C-49.35340475 138.80124477 -49.28081018 134.11361962 -49.375 129.25 C-49.41238281 128.54101562 -49.44976562 127.83203125 -49.48828125 127.1015625 C-49.56127853 122.59195274 -48.83428854 119.81323603 -46.50488281 115.93774414 C-43.24698732 109.6177302 -43.32115003 103.81115558 -43.3984375 96.81640625 C-43.38642807 94.91724709 -43.38642807 94.91724709 -43.37417603 92.97972107 C-43.35510519 89.64488652 -43.35543855 86.31139789 -43.36798096 82.97662354 C-43.38422428 78.25772601 -43.37902658 73.53915785 -43.35440063 68.82029724 C-43.34227567 66.31402769 -43.34503846 63.80763321 -43.36410522 61.30140686 C-43.35862167 59.6083567 -43.35862167 59.6083567 -43.35302734 57.88110352 C-43.35700531 56.88756363 -43.36098328 55.89402374 -43.36508179 54.87037659 C-43 52.375 -43 52.375 -41.65986633 50.55215454 C-39.05007746 48.7013279 -36.73519342 49.03922814 -33.58203125 49.08203125 C-32.32841797 49.09169922 -31.07480469 49.10136719 -29.78320312 49.11132812 C-28.47287109 49.13646484 -27.16253906 49.16160156 -25.8125 49.1875 C-24.47722837 49.20255033 -23.14194063 49.21623813 -21.80664062 49.22851562 C-18.53735424 49.26392306 -15.26887907 49.3133111 -12 49.375 C-12.00666183 48.80537033 -12.01332367 48.23574066 -12.02018738 47.64884949 C-12.08648119 41.72811519 -12.13177567 35.80748607 -12.16479492 29.88647461 C-12.17989525 27.67581908 -12.20037709 25.46519357 -12.22631836 23.25463867 C-12.26264655 20.07984007 -12.27971384 16.90543703 -12.29296875 13.73046875 C-12.30845261 12.73975876 -12.32393646 11.74904877 -12.33988953 10.72831726 C-12.34011612 9.80758926 -12.34034271 8.88686127 -12.34057617 7.93823242 C-12.34723801 7.1277092 -12.35389984 6.31718597 -12.36076355 5.48210144 C-11.25158662 -0.99623682 -5.31053382 -0.08390477 0 0 Z " fill="#48795F" transform="translate(201,161.625)"/>
<path d="M0 0 C262.02 0 524.04 0 794 0 C794 251.46 794 502.92 794 762 C531.98 762 269.96 762 0 762 C0 510.54 0 259.08 0 0 Z M25 24 C25 260.28 25 496.56 25 740 C271.51 740 518.02 740 772 740 C772 503.72 772 267.44 772 24 C525.49 24 278.98 24 25 24 Z " fill="#4E7B63" transform="translate(0,0)"/>
<path d="M0 0 C0 44.22 0 88.44 0 134 C-0.99 134 -1.98 134 -3 134 C-7.13193025 128.05588235 -7.546006 123.60900218 -7.390625 116.47265625 C-7.38496521 115.48373886 -7.37930542 114.49482147 -7.37347412 113.47593689 C-7.35120015 110.33761857 -7.30101998 107.20046943 -7.25 104.0625 C-7.22992342 101.92644886 -7.21167468 99.7903797 -7.1953125 97.65429688 C-7.15477732 92.43539226 -7.07646879 87.21899464 -7 82 C-14.26 82 -21.52 82 -29 82 C-28.94877722 88.65383959 -28.88559102 95.30541096 -28.79248047 101.95849609 C-28.76438371 104.21818611 -28.74311343 106.47797233 -28.72900391 108.73779297 C-28.70741781 112.00017152 -28.66068651 115.26140686 -28.609375 118.5234375 C-28.60753204 120.02093033 -28.60753204 120.02093033 -28.60565186 121.54867554 C-28.40845078 131.15180399 -25.71165013 139.17485662 -19.0546875 146.24609375 C-13.42593488 151.05086547 -7.03271854 152.99065185 0 155 C0 171.17 0 187.34 0 204 C-4.455 204.99 -4.455 204.99 -9 206 C-15.79775855 210.20872054 -21.52376843 219.5713053 -24 227 C-24.66 227 -25.32 227 -26 227 C-25.85795259 225.41632253 -25.71119847 223.83306682 -25.5625 222.25 C-25.44068359 220.92742187 -25.44068359 220.92742187 -25.31640625 219.578125 C-25 217 -25 217 -24.46875 214.9375 C-23.95335917 212.80721791 -23.90103746 210.93775252 -23.9375 208.75 C-23.9684375 206.89375 -23.9684375 206.89375 -24 205 C-26.91652174 204.83318891 -26.91652174 204.83318891 -30 205 C-32.83374655 207.83374655 -32.72624334 210.86427195 -33.125 214.6875 C-33.25128784 215.85647827 -33.25128784 215.85647827 -33.38012695 217.04907227 C-34.03559836 223.84352818 -34.18212028 230.61440099 -34.1875 237.4375 C-34.18830566 238.4380542 -34.18911133 239.4386084 -34.18994141 240.46948242 C-34.18558897 245.82119682 -34.18558897 245.82119682 -33 251 C-30.08347826 251.16681109 -30.08347826 251.16681109 -27 251 C-24.45970366 248.45970366 -24.63881924 247.15214598 -24.25 243.625 C-22.58702341 232.86077168 -17.09921085 224.09619445 -10 216 C-9.51917969 215.42378906 -9.03835938 214.84757813 -8.54296875 214.25390625 C-7 213 -7 213 -3 213 C-0.91959285 214.73060905 -0.11716837 216.1676887 0.26109886 218.8547287 C0.37128254 221.23930831 0.37067951 223.60423528 0.34057617 225.99121094 C0.34101425 226.89887711 0.34145233 227.80654327 0.34190369 228.74171448 C0.33981499 231.73948739 0.31647991 234.73669987 0.29296875 237.734375 C0.28737309 239.81373794 0.28310285 241.89310484 0.28010559 243.97247314 C0.2686545 249.44373506 0.23918486 254.91475783 0.20599365 260.38592529 C0.17529858 265.9694902 0.16160145 271.55309378 0.14648438 277.13671875 C0.11431556 288.09125087 0.06311586 299.04560554 0 310 C-0.95777344 310.11069824 -1.91554688 310.22139648 -2.90234375 310.33544922 C-6.48875007 310.75137905 -10.07431068 311.17425135 -13.65966797 311.59912109 C-15.20534752 311.78132617 -16.75124412 311.96170044 -18.29736328 312.14013672 C-20.53218553 312.39838926 -22.766119 312.6634299 -25 312.9296875 C-25.68054443 313.00686005 -26.36108887 313.08403259 -27.06225586 313.1635437 C-31.84992785 313.74330314 -36.34530369 314.78457923 -41 316 C-43.06434419 316.33959183 -45.13356314 316.65117441 -47.20703125 316.9296875 C-53.82946263 317.9112826 -60.22095081 319.40810144 -66.6875 321.125 C-67.83726318 321.42704346 -68.98702637 321.72908691 -70.17163086 322.0402832 C-78.51697255 324.26453351 -86.80333164 326.66282172 -95.0625 329.1875 C-96.63874146 329.66823975 -96.63874146 329.66823975 -98.24682617 330.15869141 C-104.63368798 332.14890837 -110.82869903 334.42159258 -117 337 C-117.78963135 337.32395752 -118.5792627 337.64791504 -119.39282227 337.98168945 C-143.57736371 347.95072101 -167.92850306 359.4136265 -189.09765625 374.9453125 C-192 377 -192 377 -194 377 C-194 303.41 -194 229.82 -194 154 C-181.13 154 -168.26 154 -155 154 C-155 148.06 -155 142.12 -155 136 C-166.22 136 -177.44 136 -189 136 C-189 118.18 -189 100.36 -189 82 C-190.65 82 -192.3 82 -194 82 C-194.5976901 77.89088059 -194.85362092 75.35814197 -192.60546875 71.78125 C-187.40692717 65.76745852 -181.26862578 60.84852155 -175 56 C-174.03835938 55.24589844 -173.07671875 54.49179688 -172.0859375 53.71484375 C-154.51774869 40.20263521 -134.20471949 28.62462645 -113 22 C-111.57894641 21.49125792 -110.16154787 20.97205067 -108.75 20.4375 C-108.17934814 20.22287109 -107.60869629 20.00824219 -107.02075195 19.78710938 C-105.65906839 19.25671578 -104.30688729 18.70133627 -102.96484375 18.12304688 C-95.59143053 14.99282428 -88.01328594 12.9778679 -80.25 11.0625 C-79.55968689 10.89047058 -78.86937378 10.71844116 -78.15814209 10.54119873 C-52.49363113 4.18295009 -26.45909056 0 0 0 Z " fill="#48795F" transform="translate(600,174)"/>
<path d="M0 0 C1.3765979 0.01196411 1.3765979 0.01196411 2.78100586 0.02416992 C18.68739599 0.33787671 34.52624518 2.65011152 50.25 4.9375 C51.43638062 5.10922729 51.43638062 5.10922729 52.64672852 5.28442383 C53.38721436 5.39810303 54.1277002 5.51178223 54.890625 5.62890625 C55.52000977 5.72502197 56.14939453 5.8211377 56.79785156 5.92016602 C59.91612372 6.56421713 62.94079922 7.49382265 66 8.375 C68.44106784 8.98839397 70.88526998 9.5894133 73.33203125 10.1796875 C74.72209392 10.5191682 76.11206507 10.85902383 77.50195312 11.19921875 C79.65322451 11.72475374 81.80490283 12.24817613 83.95825195 12.76513672 C92.24134477 14.75733307 100.1554477 16.99777632 108 20.375 C110.37294036 21.23487194 112.74786823 22.08928408 115.125 22.9375 C146.96729777 34.70114539 174.30107188 51.13745987 198 75.375 C201.98245111 73.79880741 204.4472867 70.99120156 207.3125 67.9375 C218.81561632 56.11891241 232.81652384 47.61455263 247 39.375 C247.9266748 38.83214355 247.9266748 38.83214355 248.87207031 38.27832031 C292.80303591 12.81639072 348.59746949 0.86259519 399.125 0.0625 C399.87861816 0.04461426 400.63223633 0.02672852 401.40869141 0.00830078 C406.50853618 0.01660479 406.50853618 0.01660479 408.69697571 1.61250305 C410.36693101 3.87131828 410.36353075 5.14542558 410.34057617 7.93823242 C410.34034958 8.85896042 410.34012299 9.77968842 410.33988953 10.72831726 C410.32440567 11.71902725 410.30892181 12.70973724 410.29296875 13.73046875 C410.28872391 14.74724197 410.28447906 15.7640152 410.28010559 16.81159973 C410.26329997 20.06216812 410.22564382 23.3121187 410.1875 26.5625 C410.17245562 28.76496501 410.15876679 30.96743973 410.14648438 33.16992188 C410.11339036 38.57182572 410.06317223 43.97336872 410 49.375 C410.79696289 49.35928955 411.59392578 49.3435791 412.41503906 49.32739258 C416.0266205 49.26502411 419.63808861 49.22600261 423.25 49.1875 C425.13138672 49.14979492 425.13138672 49.14979492 427.05078125 49.11132812 C428.25605469 49.10166016 429.46132813 49.09199219 430.703125 49.08203125 C432.36843262 49.05846558 432.36843262 49.05846558 434.06738281 49.03442383 C437.43926082 49.42601306 438.59554613 50.02208825 441 52.375 C441.50139666 54.76278204 441.50139666 54.76278204 441.50336456 57.65244198 C441.51379555 58.75321793 441.52422654 59.85399389 441.53497362 60.9881267 C441.52605073 62.20230841 441.51712785 63.41649011 441.50793457 64.66746521 C441.51729451 66.59655522 441.51729451 66.59655522 441.52684355 68.56461674 C441.54359345 72.14175303 441.53526521 75.71846431 441.52289867 79.29560244 C441.51387335 83.15049775 441.52780539 87.00531836 441.53881836 90.86019897 C441.55663573 98.41510449 441.5527492 105.96985134 441.5411678 113.52476316 C441.53214569 119.66359198 441.53090416 125.80237625 441.53526306 131.94120979 C441.53587599 132.81388722 441.53648893 133.68656465 441.53712043 134.58568685 C441.5383993 136.35835434 441.53969615 138.13102181 441.5410108 139.90368927 C441.55242619 156.53931656 441.53928822 173.17485578 441.51780933 189.81046862 C441.49994061 204.09219574 441.50303873 218.37379281 441.52148438 232.65551758 C441.54287958 249.22879223 441.55132416 265.80198961 441.53903532 282.37527615 C441.53776109 284.14184223 441.53650361 285.90840833 441.53526306 287.67497444 C441.53433741 288.97884483 441.53433741 288.97884483 441.53339306 290.30905602 C441.52993586 296.4417428 441.5357765 302.57438066 441.54518127 308.70705986 C441.5563878 316.17910849 441.55338982 323.650989 441.5320583 331.12301832 C441.52152913 334.93720573 441.51745747 338.7511126 441.53065491 342.56529808 C441.54473029 346.69562781 441.52795053 350.8252462 441.50793457 354.95555115 C441.5213189 356.77347763 441.5213189 356.77347763 441.53497362 358.6281299 C441.51932714 360.28320546 441.51932714 360.28320546 441.50336456 361.97171688 C441.50271515 362.92546701 441.50206574 363.87921715 441.50139666 364.8618688 C440.84954 368.12914489 439.57242054 369.32403989 437 371.375 C434.42524719 371.94299316 434.42524719 371.94299316 431.4699707 372.04101562 C430.3543576 372.08803116 429.23874451 372.13504669 428.08932495 372.18348694 C426.88035553 372.21574875 425.67138611 372.24801056 424.42578125 372.28125 C422.53643356 372.3561692 422.53643356 372.3561692 420.60891724 372.43260193 C417.91005964 372.53916058 415.21179276 372.63948371 412.51242065 372.72970581 C405.51392046 372.96635689 398.51869778 373.28092491 391.5234375 373.59765625 C390.83691793 373.62830233 390.15039837 373.6589484 389.44307518 373.69052315 C374.97083246 374.34354807 360.75495224 375.73960545 346.42382812 377.87207031 C342.97936642 378.37803089 339.53137622 378.83178792 336.078125 379.2734375 C307.45230857 383.01269996 279.13000377 389.01194009 251.05712891 395.68823242 C249.13332617 396.12040437 247.19769557 396.50534418 245.25146484 396.8215332 C240.47602241 397.59418644 240.47602241 397.59418644 237.125 400.87890625 C236.75375 401.88824219 236.3825 402.89757812 236 403.9375 C231.1023744 415.11104475 223.14983761 420.85697608 212 425.375 C201.73663532 428.83146372 188.57674656 426.63572884 179 422.375 C176.02548687 420.64898653 173.52864775 418.69756852 171 416.375 C170.37351562 415.82714844 169.74703125 415.27929688 169.1015625 414.71484375 C164.93026216 410.85155082 161.89227644 406.78150411 160 401.375 C160 400.385 160 399.395 160 398.375 C158.53796143 398.19904297 158.53796143 398.19904297 157.04638672 398.01953125 C152.67766231 397.39403891 148.50485462 396.24013644 144.2578125 395.0625 C134.53377141 392.44026538 124.75362053 390.32244494 114.875 388.375 C114.02424896 388.20546814 113.17349792 388.03593628 112.29696655 387.86126709 C96.41580124 384.70529631 80.48339331 382.12750984 64.45166016 379.87207031 C61.19475266 379.40304615 57.94788773 378.8897752 54.69921875 378.3671875 C39.62600027 376.05288559 24.5027313 374.90403492 9.2878418 373.99731445 C6.20136316 373.8133264 3.11532257 373.62306196 0.02929688 373.43164062 C-2.00780502 373.3071692 -4.04491435 373.1828194 -6.08203125 373.05859375 C-7.07429718 372.99674896 -8.06656311 372.93490417 -9.08889771 372.8711853 C-14.07567454 372.56991309 -19.05388237 372.3304769 -24.04833984 372.20361328 C-25.01051926 372.17437271 -25.97269867 372.14513214 -26.96403503 372.11500549 C-28.77981228 372.06318104 -30.59612435 372.02689024 -32.41255188 372.00889587 C-33.2221788 371.98412674 -34.03180573 371.9593576 -34.8659668 371.93383789 C-35.57085739 371.92203995 -36.27574799 371.910242 -37.0019989 371.89808655 C-40.04657642 371.10100113 -41.0943007 369.88602703 -43 367.375 C-43.38756668 364.35145299 -43.53020939 361.69413993 -43.49206543 358.67169189 C-43.49674442 357.78370431 -43.50142341 356.89571672 -43.50624418 355.98082042 C-43.51719558 352.99896455 -43.49966986 350.01794905 -43.48242188 347.03613281 C-43.48460723 344.90076447 -43.48860319 342.76539732 -43.49427795 340.6300354 C-43.50285261 336.02790568 -43.49904516 331.42600898 -43.4858551 326.82389069 C-43.46554873 319.54582562 -43.47548325 312.26799635 -43.4901123 304.9899292 C-43.51917405 288.22129996 -43.50841868 271.45273948 -43.49741364 254.68409729 C-43.48774045 239.32742061 -43.48645912 223.97086655 -43.51729441 208.61421084 C-43.53067081 201.38073684 -43.52470298 194.14761514 -43.50392914 186.91416216 C-43.49494011 182.41012661 -43.50242039 177.9062267 -43.51434135 173.40220261 C-43.51647132 171.3156806 -43.51175585 169.22913849 -43.4996357 167.1426506 C-43.48400223 164.29015014 -43.49300915 161.43872363 -43.50793457 158.58624268 C-43.49220123 157.3529494 -43.49220123 157.3529494 -43.47615004 156.09474111 C-43.53484336 151.04389006 -44.50583266 147.572972 -47.04464293 143.19179225 C-49.35340475 138.80124477 -49.28081018 134.11361962 -49.375 129.25 C-49.41238281 128.54101562 -49.44976562 127.83203125 -49.48828125 127.1015625 C-49.56127853 122.59195274 -48.83428854 119.81323603 -46.50488281 115.93774414 C-43.24698732 109.6177302 -43.32115003 103.81115558 -43.3984375 96.81640625 C-43.38642807 94.91724709 -43.38642807 94.91724709 -43.37417603 92.97972107 C-43.35510519 89.64488652 -43.35543855 86.31139789 -43.36798096 82.97662354 C-43.38422428 78.25772601 -43.37902658 73.53915785 -43.35440063 68.82029724 C-43.34227567 66.31402769 -43.34503846 63.80763321 -43.36410522 61.30140686 C-43.35862167 59.6083567 -43.35862167 59.6083567 -43.35302734 57.88110352 C-43.35700531 56.88756363 -43.36098328 55.89402374 -43.36508179 54.87037659 C-43 52.375 -43 52.375 -41.65986633 50.55215454 C-39.05007746 48.7013279 -36.73519342 49.03922814 -33.58203125 49.08203125 C-32.32841797 49.09169922 -31.07480469 49.10136719 -29.78320312 49.11132812 C-28.47287109 49.13646484 -27.16253906 49.16160156 -25.8125 49.1875 C-24.47722837 49.20255033 -23.14194063 49.21623813 -21.80664062 49.22851562 C-18.53735424 49.26392306 -15.26887907 49.3133111 -12 49.375 C-12.00666183 48.80537033 -12.01332367 48.23574066 -12.02018738 47.64884949 C-12.08648119 41.72811519 -12.13177567 35.80748607 -12.16479492 29.88647461 C-12.17989525 27.67581908 -12.20037709 25.46519357 -12.22631836 23.25463867 C-12.26264655 20.07984007 -12.27971384 16.90543703 -12.29296875 13.73046875 C-12.30845261 12.73975876 -12.32393646 11.74904877 -12.33988953 10.72831726 C-12.34011612 9.80758926 -12.34034271 8.88686127 -12.34057617 7.93823242 C-12.34723801 7.1277092 -12.35389984 6.31718597 -12.36076355 5.48210144 C-11.25158662 -0.99623682 -5.31053382 -0.08390477 0 0 Z M-1 12.375 C-1 39.435 -1 66.495 -1 94.375 C2.63 95.695 6.26 97.015 10 98.375 C18.1583791 102.99092502 24.39236624 108.69142111 27.9375 117.5625 C31.00541298 128.65715384 29.32297791 139.30997833 24 149.375 C18.86581054 157.31084107 10.82351296 162.28629023 2 165.375 C-1.9507857 165.78298916 -5.90518017 165.6994429 -9.875 165.6875 C-11.47021484 165.71166992 -11.47021484 165.71166992 -13.09765625 165.73632812 C-19.26156647 165.74015664 -23.50781714 165.15038307 -29 162.375 C-29.99 162.375 -30.98 162.375 -32 162.375 C-32 227.715 -32 293.055 -32 360.375 C-22.1 360.705 -12.2 361.035 -2 361.375 C10.25 362.375 10.25 362.375 15.86328125 362.91796875 C19.69994379 363.28191813 23.51204969 363.49406408 27.36279297 363.61669922 C37.9842428 363.97916338 48.38023803 365.72541999 58.84936523 367.44116211 C66.88347794 368.75466216 74.90594567 369.86741851 83 370.75 C96.62861296 372.30701979 109.92717249 375.43576392 123.27441406 378.51708984 C126.63596196 379.29117106 130.00031636 380.05025628 133.3671875 380.80078125 C137.78815836 381.78803184 142.20419562 382.79427778 146.61621094 383.82080078 C148.21253108 384.19192396 149.80954779 384.56006295 151.40722656 384.92529297 C153.64905661 385.43988005 155.88733611 385.96762762 158.125 386.5 C159.98511719 386.93699219 159.98511719 386.93699219 161.8828125 387.3828125 C164.9744467 388.36686649 166.73865461 389.07235149 169 391.375 C170.203125 394.046875 170.203125 394.046875 171.25 397.125 C174.54912348 405.47874386 179.89032855 409.70095104 187.81225586 413.55029297 C191.48759995 414.93577588 194.98192348 415.01425196 198.875 414.9375 C199.66366455 414.92654297 200.4523291 414.91558594 201.26489258 414.90429688 C209.87474938 414.58524917 215.79758119 411.96968201 221.8125 405.75 C225.03480389 401.81579176 226.7552456 397.58642623 228.37109375 392.79296875 C232.61991814 386.48596084 244.09005945 385.68066474 251.1340332 383.89550781 C253.16673735 383.38026287 255.1977353 382.85870776 257.22851562 382.3359375 C279.93964185 376.51150885 279.93964185 376.51150885 291.375 374.875 C296.86320371 374.08117054 302.27271159 373.11660031 307.69921875 371.96875 C317.87302053 369.91009913 328.14040911 368.64730354 338.4375 367.375 C339.48069397 367.24493561 340.52388794 367.11487122 341.59869385 366.98086548 C356.16716022 365.17652939 370.73482431 363.64475906 385.375 362.5625 C386.5179805 362.47681763 386.5179805 362.47681763 387.68405151 362.3894043 C401.7807223 361.35391367 415.86742865 360.91856044 430 360.375 C430 294.045 430 227.715 430 159.375 C426.04230461 160.95807815 422.22424237 162.64973304 418.37890625 164.47265625 C415.61112047 165.52250603 412.91891298 165.92088022 410 166.375 C409.99641747 167.63093948 409.99641747 167.63093948 409.99276257 168.91225147 C409.93367616 189.26733262 409.85816709 209.62229474 409.76428509 229.97724628 C409.71928256 239.8206761 409.67987825 249.66406938 409.65356445 259.50756836 C409.63062039 268.08523535 409.59726282 276.66278714 409.55129844 285.24036282 C409.52731759 289.7838842 409.50862076 294.32729114 409.50238609 298.8708744 C409.49635712 303.14479725 409.47643717 307.41842709 409.44572449 311.69224167 C409.436909 313.26320426 409.4332289 314.83420509 409.43499184 316.40519142 C409.43663601 318.54584493 409.42002061 320.68559603 409.39872742 322.8261261 C409.39411845 324.02537877 409.38950949 325.22463144 409.38476086 326.46022511 C409 329.375 409 329.375 407.6302309 331.2507658 C405.29415197 332.86176448 403.34892157 332.92499559 400.53125 333.1484375 C399.4160498 333.24825928 398.30084961 333.34808105 397.15185547 333.45092773 C395.94674316 333.54962158 394.74163086 333.64831543 393.5 333.75 C373.02536243 335.6803447 353.01273941 339.73349116 333 344.375 C331.16695312 344.77525391 331.16695312 344.77525391 329.296875 345.18359375 C328.16765625 345.43238281 327.0384375 345.68117188 325.875 345.9375 C324.92367188 346.14503906 323.97234375 346.35257812 322.9921875 346.56640625 C319.92527259 347.39519396 317.04565841 348.46437012 314.08496094 349.60522461 C311.39426932 350.59863804 308.66448691 351.40136157 305.91430664 352.21191406 C269.33330795 363.10479779 233.02128903 381.30130322 203.23828125 405.36328125 C199.75417332 406.93812235 197.65368795 406.38411381 194 405.375 C191.33213655 403.74527937 189.01100966 401.76284783 186.625 399.75 C164.031239 381.6991934 137.06117885 368.35741729 110 358.375 C108.81535156 357.91996094 107.63070312 357.46492188 106.41015625 356.99609375 C71.92445428 344.09826913 34.39698517 335.25380403 -2.45654297 333.04394531 C-7.56122248 332.68772366 -7.56122248 332.68772366 -9.68562317 331.17362976 C-11.47033028 328.73138698 -11.39727494 327.08880985 -11.43237305 324.07739258 C-11.45216721 322.99649857 -11.47196136 321.91560455 -11.49235535 320.80195618 C-11.49874527 319.63625595 -11.50513519 318.47055573 -11.51171875 317.26953125 C-11.52966995 316.07518967 -11.54762115 314.88084808 -11.56611633 313.65031433 C-11.62037033 309.82941232 -11.65416429 306.00863629 -11.6875 302.1875 C-11.72065965 299.59959178 -11.75514802 297.01170023 -11.79101562 294.42382812 C-11.87610557 288.07433172 -11.94439153 281.72481931 -12 275.375 C-2.79294335 280.52293944 -2.79294335 280.52293944 -1.06732178 284.55343628 C-0.75029958 287.01760521 -0.71666393 289.32579559 -0.8046875 291.80859375 C-0.79664093 292.68653091 -0.78859436 293.56446808 -0.78030396 294.4690094 C-0.76539202 297.25247177 -0.81909723 300.02965023 -0.875 302.8125 C-0.87694328 304.70768308 -0.87438539 306.60287646 -0.8671875 308.49804688 C-0.85938496 313.12544205 -0.91308374 317.7484539 -1 322.375 C-0.28271729 322.43969482 0.43456543 322.50438965 1.17358398 322.57104492 C17.38646821 324.07188005 33.18603952 326.22718173 49.09179688 329.73974609 C51.84269938 330.34064001 54.59856517 330.90374534 57.359375 331.45703125 C87.86157828 337.74322613 119.53892642 348.58428484 146.97851562 363.30761719 C149.26519955 364.51503049 151.57561898 365.66816417 153.890625 366.8203125 C164.57439576 372.19502511 174.58408858 378.14948135 184.42456055 384.95556641 C185.25769775 385.53097168 186.09083496 386.10637695 186.94921875 386.69921875 C187.68487061 387.21572998 188.42052246 387.73224121 189.1784668 388.2644043 C190.92903827 389.54852496 190.92903827 389.54852496 193 389.375 C193 315.785 193 242.195 193 166.375 C191.35 166.375 189.7 166.375 188 166.375 C188 142.615 188 118.855 188 94.375 C189.32 94.375 190.64 94.375 192 94.375 C192.72060463 90.0513722 192.87187997 87.67229 190.3828125 83.96875 C188.02254215 81.3144958 185.56159519 78.83547959 183 76.375 C182.18015625 75.55902344 181.3603125 74.74304688 180.515625 73.90234375 C160.95208835 55.19841704 135.75755202 43.53289848 111 33.375 C110.12811035 33.01277344 109.2562207 32.65054688 108.35791016 32.27734375 C103.58329181 30.32167162 98.88458189 28.65307101 93.875 27.375 C92.92596802 27.13136719 92.92596802 27.13136719 91.95776367 26.8828125 C90.63291834 26.54390237 89.30730783 26.20796965 87.98095703 25.875 C86.04556347 25.38650037 84.11449926 24.88094863 82.18359375 24.375 C66.91519892 20.43079306 51.53286772 17.51577145 35.9375 15.1875 C34.82012451 15.02056641 33.70274902 14.85363281 32.55151367 14.68164062 C21.23422901 13.04113646 10.517908 12.375 -1 12.375 Z M369.1875 14.0625 C368.52524414 14.15114319 367.86298828 14.23978638 367.18066406 14.33111572 C349.41175543 16.71587358 331.87109466 19.98735783 314.5 24.4375 C313.58669922 24.67065918 312.67339844 24.90381836 311.73242188 25.14404297 C306.42279016 26.55987926 301.39819025 28.33287752 296.32275391 30.43530273 C294.29111909 31.25722437 292.26843148 31.98424781 290.18359375 32.65625 C262.80426437 41.56381076 238.46086207 56.04546052 216.5625 74.5625 C215.69310791 75.29315674 215.69310791 75.29315674 214.80615234 76.03857422 C208.21788037 81.41905601 208.21788037 81.41905601 204.51171875 88.7109375 C204.56972656 89.38382812 204.62773437 90.05671875 204.6875 90.75 C204.790625 91.94625 204.89375 93.1425 205 94.375 C206.65 94.375 208.3 94.375 210 94.375 C210 112.195 210 130.015 210 148.375 C221.22 148.375 232.44 148.375 244 148.375 C244 154.315 244 160.255 244 166.375 C231.13 166.375 218.26 166.375 205 166.375 C205 239.965 205 313.555 205 389.375 C209.23931324 387.6792747 212.25490017 386.00591239 216 383.5 C238.27596408 368.91597924 262.04393371 356.64695835 287 347.375 C288.19326904 346.92713135 288.19326904 346.92713135 289.41064453 346.47021484 C312.486451 337.87591712 336.63621952 331.08062889 361 327.375 C362.43125697 327.1383301 363.86222556 326.89991252 365.29296875 326.66015625 C366.8827784 326.39823046 368.47262228 326.13651229 370.0625 325.875 C370.76294434 325.75632568 371.46338867 325.63765137 372.18505859 325.51538086 C378.05181976 324.56848535 383.94021514 323.93707703 389.84936523 323.32617188 C391.17085194 323.18837311 391.17085194 323.18837311 392.51903534 323.04779053 C394.67926638 322.82265683 396.83962099 322.59870939 399 322.375 C399.06946628 310.31842587 399.12279419 298.26189925 399.15543652 286.20516586 C399.17110205 280.60692025 399.1923567 275.00881142 399.22631836 269.41064453 C399.25887989 264.00956119 399.27684633 258.60860952 399.28463173 253.20743561 C399.29018099 251.14531633 399.30101714 249.08320437 399.31719017 247.02114105 C399.33892165 244.13600508 399.3419687 241.2514154 399.34057617 238.36621094 C399.351362 237.51097336 399.36214783 236.65573578 399.3732605 235.77458191 C399.36006926 231.06446421 399.36006926 231.06446421 397.47871399 226.81304932 C396.99073837 226.33849304 396.50276276 225.86393677 396 225.375 C390.73788989 226.03163938 389.0254078 228.0308759 385.76953125 231.99609375 C379.44835459 240.49409946 374.921643 248.82884606 374.30859375 259.4921875 C374 261.375 374 261.375 372 263.375 C368.875 263.5 368.875 263.5 366 263.375 C364.50801784 258.89905353 364.8087236 254.50241404 364.8125 249.8125 C364.81330566 248.79067627 364.81411133 247.76885254 364.81494141 246.71606445 C364.86723865 240.12609905 365.16711674 233.61499258 365.875 227.0625 C365.95339111 226.310896 366.03178223 225.55929199 366.11254883 224.78491211 C366.7414724 219.6335276 366.7414724 219.6335276 369 217.375 C372.125 217.25 372.125 217.25 375 217.375 C375.1931031 222.68533517 374.71119098 227.16765219 373.4453125 232.3203125 C372.92768103 234.70868225 372.84282595 236.93880218 373 239.375 C373.66 239.375 374.32 239.375 375 239.375 C375.515625 238.240625 376.03125 237.10625 376.5625 235.9375 C380.19084158 228.70645882 385.22601134 221.89099244 392 217.375 C394.31 217.045 396.62 216.715 399 216.375 C399 200.205 399 184.035 399 167.375 C395.04 166.055 391.08 164.735 387 163.375 C378.82513113 158.35329483 373.50356842 151.72860978 371 142.375 C370.67123731 138.6819007 370.6279507 134.99519855 370.5859375 131.2890625 C370.55688828 129.70368179 370.55688828 129.70368179 370.5272522 128.08627319 C370.46767086 124.72426316 370.42115658 121.36221849 370.375 118 C370.33680052 115.71482916 370.29774764 113.42967242 370.2578125 111.14453125 C370.16038734 105.55476256 370.08064738 99.96513651 370 94.375 C377.26 94.375 384.52 94.375 392 94.375 C391.95359375 97.54222656 391.9071875 100.70945312 391.859375 103.97265625 C391.82814382 107.05393879 391.80387627 110.13520343 391.78027344 113.21655273 C391.76020818 115.35139918 391.73294942 117.486191 391.69824219 119.62084961 C391.64950057 122.69658925 391.62697994 125.77159969 391.609375 128.84765625 C391.58872986 129.79584732 391.56808472 130.74403839 391.54681396 131.72096252 C391.54476798 137.8185037 392.50618318 141.3488604 396 146.375 C396.99 146.375 397.98 146.375 399 146.375 C399 102.155 399 57.935 399 12.375 C388.72346321 12.375 379.26432331 12.68095818 369.1875 14.0625 Z " fill="#B4D063" transform="translate(201,161.625)"/>
<path d="M0 0 C250.14 0 500.28 0 758 0 C758 240.24 758 480.48 758 728 C507.86 728 257.72 728 0 728 C0 487.76 0 247.52 0 0 Z M6 6 C6 242.28 6 478.56 6 722 C252.51 722 499.02 722 753 722 C753 485.72 753 249.44 753 6 C506.49 6 259.98 6 6 6 Z " fill="#ECF0ED" transform="translate(19,18)"/>
<path d="M0 0 C7.26 0 14.52 0 22 0 C22 17.82 22 35.64 22 54 C33.22 54 44.44 54 56 54 C56 59.94 56 65.88 56 72 C43.13 72 30.26 72 17 72 C17 145.59 17 219.18 17 295 C23.27 291.04 29.54 287.08 36 283 C39.42624131 280.94142556 42.83765852 278.90580046 46.3125 276.9375 C47.17093506 276.45055664 48.02937012 275.96361328 48.91381836 275.46191406 C65.09331357 266.38228791 81.60729677 258.46193266 99 252 C99.7955127 251.7014209 100.59102539 251.4028418 101.41064453 251.09521484 C124.48305815 242.50218075 148.63720928 235.69483082 173 232 C174.53668523 231.75139848 176.0731244 231.50127338 177.609375 231.25 C197.95037007 227.93969672 197.95037007 227.93969672 206.7734375 227.98046875 C207.56927246 227.98328857 208.36510742 227.9861084 209.18505859 227.98901367 C209.78398926 227.99263916 210.38291992 227.99626465 211 228 C210.91567332 215.94328065 210.82081981 203.8866947 210.71247292 191.83016586 C210.66249669 186.23201736 210.61616666 180.63388786 210.578125 175.03564453 C210.54128911 169.63447701 210.49493359 164.23346789 210.44193649 158.83243561 C210.42338356 156.77036565 210.40827893 154.70826172 210.39665604 152.64614105 C210.37980913 149.76099884 210.35077759 146.87622011 210.31884766 143.99121094 C210.31668747 143.13597336 210.31452728 142.28073578 210.31230164 141.39958191 C210.29555641 140.21755943 210.29555641 140.21755943 210.2784729 139.01165771 C210.27294214 138.32953091 210.26741138 137.6474041 210.26171303 136.94460678 C209.95264577 134.64814375 209.12834975 133.00875137 208 131 C200.94838819 132.86660313 197.46424609 139.07120492 193.8125 144.9375 C189.97133066 151.59418614 187.73411384 157.30106993 187.40625 165.01953125 C186.8873098 167.54936475 186.05921556 168.47375788 184 170 C180.9375 169.875 180.9375 169.875 178 169 C175.87107997 165.80661996 175.7443029 164.97588795 175.734375 161.30859375 C175.73026611 160.37176758 175.72615723 159.43494141 175.72192383 158.46972656 C175.73118896 157.4690918 175.7404541 156.46845703 175.75 155.4375 C175.75604248 154.41495117 175.76208496 153.39240234 175.76831055 152.33886719 C175.85244714 145.78131203 176.14760197 139.2748208 176.8125 132.75 C176.88243164 132.0067749 176.95236328 131.2635498 177.02441406 130.49780273 C177.36451603 127.61743714 177.69666424 125.43309129 179.37890625 123.03125 C181.89670431 121.42956642 184.10101028 121.74791394 187 122 C188 123 188 123 188.25 126.1875 C188.20319586 132.58796573 186.46213832 138.80331853 185 145 C185.66 145 186.32 145 187 145 C187.09152344 144.28585937 187.18304687 143.57171875 187.27734375 142.8359375 C189.25687241 135.06762503 196.12398462 128.49246951 201.84765625 123.14453125 C204 122 204 122 211 122 C211 105.83 211 89.66 211 73 C207.7 72.34 204.4 71.68 201 71 C192.00074183 66.84748516 186.32823808 59.88450027 182.82263184 50.80548096 C181.42779711 46.04857502 181.5075786 41.44596374 181.609375 36.5234375 C181.61503479 35.47217682 181.62069458 34.42091614 181.62652588 33.33779907 C181.64871957 30.016381 181.69888411 26.69608591 181.75 23.375 C181.77008697 21.10808862 181.78833386 18.84116014 181.8046875 16.57421875 C181.84510819 11.04871008 181.92343286 5.52559551 182 0 C189.26 0 196.52 0 204 0 C204.02578125 3.16722656 204.0515625 6.33445312 204.078125 9.59765625 C204.11658262 12.6790439 204.16173098 15.76026632 204.20751953 18.84155273 C204.23567349 20.97623756 204.25691565 23.11102556 204.27099609 25.24584961 C204.29250253 28.32198694 204.33919337 31.39689114 204.390625 34.47265625 C204.39246796 35.89494286 204.39246796 35.89494286 204.39434814 37.34596252 C204.52692948 43.39997958 205.48304998 47.03117026 209 52 C212.34042786 54.64930485 215.86696196 54.3625472 220 54 C223.29281042 52.65294119 224.66534275 51.5128804 226.60864258 48.53466797 C228.46930734 43.80775018 228.47795724 39.60740159 228.51171875 34.5703125 C228.52966995 33.57998016 228.54762115 32.58964783 228.56611633 31.56930542 C228.62008901 28.42124629 228.65407356 25.27333767 228.6875 22.125 C228.72068454 19.98435412 228.75517525 17.84372806 228.79101562 15.703125 C228.87825554 10.46872989 228.9384366 5.23501146 229 0 C236.26 0 243.52 0 251 0 C251.11579184 5.99287093 251.2150182 11.98174839 251.2746582 17.97485352 C251.29955858 20.00656396 251.33349189 22.03818716 251.37719727 24.06958008 C251.67314823 38.19514568 251.68882084 51.76804043 242.875 63.625 C238.12394131 68.38645488 231.61474224 71.94212406 224.82836914 72.05078125 C223.42832642 72.02564453 223.42832642 72.02564453 222 72 C222.00368717 72.83637119 222.00737434 73.67274239 222.01117325 74.53445816 C222.09946093 94.8730774 222.16567874 115.21166367 222.20724869 135.55043411 C222.22788528 145.38606899 222.25602681 155.22157606 222.30175781 165.05712891 C222.34159203 173.62851157 222.36742483 182.19980168 222.37635398 190.77127433 C222.38157453 195.31101419 222.39386738 199.85048925 222.42292023 204.39014435 C222.45003545 208.66157303 222.45845295 212.93262741 222.45243073 217.20413399 C222.45353272 218.77310532 222.46150996 220.34208895 222.4768219 221.91098595 C222.49669008 224.05140977 222.49195235 226.19041577 222.48101807 228.33087158 C222.48470524 229.52920246 222.48839241 230.72753334 222.49219131 231.96217728 C221.89991557 235.61772477 220.91131209 236.78282254 218 239 C215.40405273 239.65014648 215.40405273 239.65014648 212.43359375 239.87109375 C211.32161621 239.96769287 210.20963867 240.06429199 209.06396484 240.16381836 C207.86723145 240.2541333 206.67049805 240.34444824 205.4375 240.4375 C184.97503229 242.29929486 164.99356399 246.36293847 145 251 C143.77796875 251.26683594 142.5559375 251.53367187 141.296875 251.80859375 C140.16765625 252.05738281 139.0384375 252.30617188 137.875 252.5625 C136.92367188 252.77003906 135.97234375 252.97757813 134.9921875 253.19140625 C131.92527259 254.02019396 129.04565841 255.08937012 126.08496094 256.23022461 C123.39426932 257.22363804 120.66448691 258.02636157 117.91430664 258.83691406 C81.33330795 269.72979779 45.02128903 287.92630322 15.23828125 311.98828125 C11.75417332 313.56312235 9.65368795 313.00911381 6 312 C3.33213655 310.37027937 1.01100966 308.38784783 -1.375 306.375 C-23.968761 288.3241934 -50.93882115 274.98241729 -78 265 C-79.18464844 264.54496094 -80.36929688 264.08992188 -81.58984375 263.62109375 C-115.91829478 250.78208177 -153.62346143 241.58992936 -190.36865234 239.75683594 C-193.5919276 239.5456431 -195.60334029 239.30792607 -198.19036865 237.29962158 C-200.40589587 234.48420052 -200.48724739 233.13547038 -200.45410156 229.58886719 C-200.45379944 228.50804871 -200.45349731 227.42723022 -200.45318604 226.31365967 C-200.43254089 225.15312073 -200.41189575 223.99258179 -200.390625 222.796875 C-200.38496521 221.60394836 -200.37930542 220.41102173 -200.37347412 219.1819458 C-200.35107926 215.37088944 -200.30087429 211.56077233 -200.25 207.75 C-200.22993915 205.16668024 -200.21168766 202.58334575 -200.1953125 200 C-200.15120411 193.66634606 -200.08425978 187.33324013 -200 181 C-191.58894073 185.14786496 -191.58894073 185.14786496 -189 188 C-188.05152518 191.09669365 -188.17964527 194.02396933 -188.31640625 197.23828125 C-188.32631088 198.11904831 -188.33621552 198.99981537 -188.34642029 199.90727234 C-188.38549786 202.7107345 -188.47329858 205.51022907 -188.5625 208.3125 C-188.59762283 210.21674018 -188.62956015 212.12104196 -188.65820312 214.02539062 C-188.73523726 218.68511424 -188.85596723 223.34188539 -189 228 C-187.27716797 228.07347656 -187.27716797 228.07347656 -185.51953125 228.1484375 C-176.22282952 228.58088751 -167.17330798 229.354332 -158 231 C-156.81212891 231.20157715 -155.62425781 231.4031543 -154.40039062 231.61083984 C-111.99123329 238.89206173 -71.13431714 251.85679635 -33 272 C-32.23123535 272.40299316 -31.4624707 272.80598633 -30.67041016 273.22119141 C-28.14787223 274.55071139 -25.63526355 275.89746117 -23.125 277.25 C-22.38354736 277.6430835 -21.64209473 278.03616699 -20.87817383 278.44116211 C-11.81151011 283.39890936 -3.6970737 289.20195086 5 295 C5 221.41 5 147.82 5 72 C3.35 72 1.7 72 0 72 C0 48.24 0 24.48 0 0 Z " fill="#B3CF65" transform="translate(389,256)"/>
<path d="M0 0 C1.3765979 0.01196411 1.3765979 0.01196411 2.78100586 0.02416992 C18.68739599 0.33787671 34.52624518 2.65011152 50.25 4.9375 C51.43638062 5.10922729 51.43638062 5.10922729 52.64672852 5.28442383 C53.38721436 5.39810303 54.1277002 5.51178223 54.890625 5.62890625 C55.52000977 5.72502197 56.14939453 5.8211377 56.79785156 5.92016602 C59.91612372 6.56421713 62.94079922 7.49382265 66 8.375 C68.44106784 8.98839397 70.88526998 9.5894133 73.33203125 10.1796875 C74.72209392 10.5191682 76.11206507 10.85902383 77.50195312 11.19921875 C79.65322451 11.72475374 81.80490283 12.24817613 83.95825195 12.76513672 C92.24134477 14.75733307 100.1554477 16.99777632 108 20.375 C110.37294036 21.23487194 112.74786823 22.08928408 115.125 22.9375 C146.96729777 34.70114539 174.30107188 51.13745987 198 75.375 C201.98245111 73.79880741 204.4472867 70.99120156 207.3125 67.9375 C218.81561632 56.11891241 232.81652384 47.61455263 247 39.375 C247.9266748 38.83214355 247.9266748 38.83214355 248.87207031 38.27832031 C292.80303591 12.81639072 348.59746949 0.86259519 399.125 0.0625 C399.87861816 0.04461426 400.63223633 0.02672852 401.40869141 0.00830078 C406.50853618 0.01660479 406.50853618 0.01660479 408.69697571 1.61250305 C410.36693101 3.87131828 410.36353075 5.14542558 410.34057617 7.93823242 C410.34034958 8.85896042 410.34012299 9.77968842 410.33988953 10.72831726 C410.32440567 11.71902725 410.30892181 12.70973724 410.29296875 13.73046875 C410.28872391 14.74724197 410.28447906 15.7640152 410.28010559 16.81159973 C410.26329997 20.06216812 410.22564382 23.3121187 410.1875 26.5625 C410.17245562 28.76496501 410.15876679 30.96743973 410.14648438 33.16992188 C410.11339036 38.57182572 410.06317223 43.97336872 410 49.375 C410.79696289 49.35928955 411.59392578 49.3435791 412.41503906 49.32739258 C416.0266205 49.26502411 419.63808861 49.22600261 423.25 49.1875 C425.13138672 49.14979492 425.13138672 49.14979492 427.05078125 49.11132812 C428.25605469 49.10166016 429.46132813 49.09199219 430.703125 49.08203125 C432.36843262 49.05846558 432.36843262 49.05846558 434.06738281 49.03442383 C437.43938033 49.42602694 438.59625169 50.02098097 441 52.375 C441.49679399 54.76738471 441.49679399 54.76738471 441.49219131 57.66361523 C441.50015551 58.76685798 441.5081197 59.87010073 441.51632524 61.00677508 C441.50467387 62.22368527 441.4930225 63.44059546 441.48101807 64.69438171 C441.48443577 65.98326398 441.48785347 67.27214625 441.49137473 68.60008556 C441.50034215 72.18498203 441.48428743 75.7694028 441.46426249 79.35423863 C441.44702698 83.21720778 441.45283141 87.08014898 441.45587158 90.94314575 C441.45797143 97.63846405 441.44539606 104.33362672 441.42292023 111.02890587 C441.39044494 120.70919014 441.3799978 130.38939897 441.37496826 140.06973181 C441.36620857 155.77447653 441.33957475 171.47913825 441.30175781 187.18383789 C441.26505514 202.44164616 441.23673485 217.6994319 441.21972656 232.95727539 C441.21867567 233.89739083 441.21762477 234.83750626 441.21654204 235.80611005 C441.21132198 240.52228045 441.20626712 245.23845101 441.20129442 249.95462167 C441.15981142 289.0948059 441.08934468 328.23489748 441 367.375 C440.67 367.375 440.34 367.375 440 367.375 C440 277.285 440 187.195 440 94.375 C432.41 94.375 424.82 94.375 417 94.375 C417.05800781 97.530625 417.11601563 100.68625 417.17578125 103.9375 C417.21483556 107.0121815 417.24516102 110.08683479 417.2746582 113.16162109 C417.29971889 115.28967771 417.33377691 117.41764897 417.37719727 119.54541016 C417.43822089 122.61382163 417.46629474 125.68108995 417.48828125 128.75 C417.51408768 129.69302979 417.5398941 130.63605957 417.56648254 131.60766602 C417.56913174 137.92335407 416.40514484 142.65589897 412 147.375 C408.28769826 149.65193646 405.33795232 149.76231717 401 149.375 C398.5625 147.875 398.5625 147.875 397 146.375 C397.66 146.375 398.32 146.375 399 146.375 C399 102.155 399 57.935 399 12.375 C370.26467116 14.87372425 342.42122281 18.26304313 314.5 25.4375 C313.58734375 25.67057861 312.6746875 25.90365723 311.734375 26.14379883 C306.42393001 27.55929558 301.39881814 29.33261742 296.32275391 31.43530273 C294.29111909 32.25722437 292.26843148 32.98424781 290.18359375 33.65625 C262.77442075 42.57352005 238.41000548 57.07350407 216.5 75.625 C215.91202637 76.1204834 215.32405273 76.6159668 214.71826172 77.12646484 C208.83945631 82.0076357 208.83945631 82.0076357 205.390625 88.61328125 C205.34421875 89.29777344 205.2978125 89.98226562 205.25 90.6875 C205.1675 91.904375 205.085 93.12125 205 94.375 C200.71 94.375 196.42 94.375 192 94.375 C192.020625 93.26125 192.04125 92.1475 192.0625 91 C191.24413413 84.55536878 186.4587015 80.71173094 182 76.375 C181.25492188 75.6325 180.50984375 74.89 179.7421875 74.125 C160.44003172 55.80430977 135.32485203 44.35536386 111 34.375 C110.12811035 34.01277344 109.2562207 33.65054688 108.35791016 33.27734375 C103.58329181 31.32167162 98.88458189 29.65307101 93.875 28.375 C92.92596802 28.13136719 92.92596802 28.13136719 91.95776367 27.8828125 C90.63291834 27.54390237 89.30730783 27.20796965 87.98095703 26.875 C86.04556347 26.38650037 84.11449926 25.88094863 82.18359375 25.375 C67.18642392 21.50085724 52.05961983 18.59363506 36.75 16.25 C35.74155029 16.09144531 34.73310059 15.93289062 33.6940918 15.76953125 C22.13630322 14.0624465 10.71893361 13.3515778 -1 12.375 C-1 39.105 -1 65.835 -1 93.375 C-7.27 93.705 -13.54 94.035 -20 94.375 C-27.39925609 96.550702 -27.39925609 96.550702 -33.1875 100.25 C-33.77917969 100.72179687 -34.37085938 101.19359375 -34.98046875 101.6796875 C-35.64691406 102.23914063 -36.31335938 102.79859375 -37 103.375 C-38.99921378 105.04261113 -40.99973449 106.7086502 -43 108.375 C-43.06949924 101.12538346 -43.12281062 93.8758387 -43.15543652 86.62595654 C-43.17109511 83.25955123 -43.19233621 79.89337377 -43.22631836 76.52709961 C-43.26261749 72.65732751 -43.2797075 68.78787974 -43.29296875 64.91796875 C-43.30845261 63.70852097 -43.32393646 62.49907318 -43.33988953 61.25297546 C-43.34011612 60.13203995 -43.34034271 59.01110443 -43.34057617 57.85620117 C-43.34723801 56.86802902 -43.35389984 55.87985687 -43.36076355 54.86174011 C-43 52.375 -43 52.375 -41.66064453 50.55371094 C-39.05053077 48.70107506 -36.73651375 49.03921022 -33.58203125 49.08203125 C-32.32841797 49.09169922 -31.07480469 49.10136719 -29.78320312 49.11132812 C-28.47287109 49.13646484 -27.16253906 49.16160156 -25.8125 49.1875 C-24.47722837 49.20255033 -23.14194063 49.21623813 -21.80664062 49.22851562 C-18.53735424 49.26392306 -15.26887907 49.3133111 -12 49.375 C-12.00666183 48.80537033 -12.01332367 48.23574066 -12.02018738 47.64884949 C-12.08648119 41.72811519 -12.13177567 35.80748607 -12.16479492 29.88647461 C-12.17989525 27.67581908 -12.20037709 25.46519357 -12.22631836 23.25463867 C-12.26264655 20.07984007 -12.27971384 16.90543703 -12.29296875 13.73046875 C-12.30845261 12.73975876 -12.32393646 11.74904877 -12.33988953 10.72831726 C-12.34011612 9.80758926 -12.34034271 8.88686127 -12.34057617 7.93823242 C-12.34723801 7.1277092 -12.35389984 6.31718597 -12.36076355 5.48210144 C-11.25158662 -0.99623682 -5.31053382 -0.08390477 0 0 Z " fill="#B2CF62" transform="translate(201,161.625)"/>
<path d="M0 0 C262.02 0 524.04 0 794 0 C794 251.46 794 502.92 794 762 C531.98 762 269.96 762 0 762 C0 510.54 0 259.08 0 0 Z M5 4 C5 253.48 5 502.96 5 760 C264.71 760 524.42 760 792 760 C792 510.52 792 261.04 792 4 C532.29 4 272.58 4 5 4 Z " fill="#F8FAF9" transform="translate(0,0)"/>
<path d="M0 0 C0 66.33 0 132.66 0 201 C-21.285 201.99 -21.285 201.99 -43 203 C-84.79649794 206.46715108 -84.79649794 206.46715108 -126.15625 213.4140625 C-129.35773168 214.07370845 -132.52285173 214.44323081 -135.77392578 214.74389648 C-153.69745027 216.80594706 -171.7843898 222.42913444 -189.125 227.25 C-189.98843018 227.48364258 -190.85186035 227.71728516 -191.74145508 227.95800781 C-192.53060303 228.18327148 -193.31975098 228.40853516 -194.1328125 228.640625 C-194.81230957 228.83172852 -195.49180664 229.02283203 -196.19189453 229.21972656 C-200.54231427 231.09711537 -201.85103082 234.60347359 -203.6875 238.75 C-207.41941346 246.38933771 -212.09788966 251.15996259 -220.03491211 254.40014648 C-223.59831768 255.48789496 -227.10968737 255.53138974 -230.8125 255.5 C-232.0022644 255.49033203 -232.0022644 255.49033203 -233.21606445 255.48046875 C-241.86524919 255.2113712 -247.76900203 252.62423408 -253.8125 246.375 C-257.0396857 242.39606987 -258.98350178 238.06283704 -260.859375 233.3203125 C-261.90655814 230.69974336 -261.90655814 230.69974336 -265 229 C-266.9896995 228.60986284 -268.99019869 228.26797351 -271 228 C-271 227.67 -271 227.34 -271 227 C-266.67123935 225.91780984 -264.62268955 225.69148563 -260.5625 227.703125 C-259.36108879 228.53227975 -258.17407482 229.38256999 -257 230.25 C-256.360625 230.69512939 -255.72125 231.14025879 -255.0625 231.59887695 C-251.61252624 234.02253406 -248.26135244 236.55919342 -244.9375 239.15234375 C-244.2775 239.65926758 -243.6175 240.16619141 -242.9375 240.68847656 C-241.67238006 241.6672866 -240.42142441 242.66476252 -239.1875 243.68261719 C-236.16844528 246.02946051 -234.34450393 246.98965339 -230.48828125 247.10546875 C-226.39084309 245.80695251 -223.48302655 243.78230361 -220.1875 241.125 C-211.85061778 234.72453431 -203.07347599 229.28898344 -194 224 C-193.26910156 223.57332031 -192.53820312 223.14664063 -191.78515625 222.70703125 C-169.60244112 209.8560822 -145.90369177 198.3884001 -121.04296875 191.82421875 C-118.01580366 191.00428058 -115.0859581 190.03178914 -112.125 189 C-102.26991104 185.65795381 -92.17667926 183.34639807 -81.93920898 181.53125 C-78.95369914 180.99163131 -75.97929645 180.40914203 -73.00390625 179.81640625 C-59.65127954 177.20006908 -46.41922657 175.18639817 -32.84985352 174.07641602 C-31.17620728 173.92644165 -31.17620728 173.92644165 -29.46875 173.7734375 C-28.48326172 173.69528809 -27.49777344 173.61713867 -26.48242188 173.53662109 C-23.53414343 172.89929654 -22.76722852 172.42004789 -21 170 C-20.53785698 166.97475293 -20.53785698 166.97475293 -20.60127258 163.4511261 C-20.59462576 162.78294379 -20.58797893 162.11476148 -20.58113068 161.42633122 C-20.56244848 159.18291126 -20.56510935 156.94002218 -20.56762695 154.6965332 C-20.55861294 153.09019209 -20.54828661 151.48385788 -20.53674316 149.87753296 C-20.50910451 145.51212932 -20.49987937 141.14685594 -20.49388909 136.78137612 C-20.48452323 132.22091245 -20.45832136 127.66054676 -20.43388367 123.10014343 C-20.39016564 114.46230829 -20.36165129 105.8244921 -20.33856028 97.18657988 C-20.31153699 87.35350939 -20.26762376 77.52053722 -20.22227156 67.68753684 C-20.12934935 47.45841073 -20.05770335 27.2292552 -20 7 C-19.38253403 6.87058014 -18.76506805 6.74116028 -18.12889099 6.6078186 C-17.31863968 6.43382538 -16.50838837 6.25983215 -15.67358398 6.08056641 C-14.87049301 5.90989655 -14.06740204 5.73922668 -13.23997498 5.56338501 C-10.55375264 4.88776255 -8.41373087 3.82910662 -6.0625 2.375 C-2.17052023 0 -2.17052023 0 0 0 Z " fill="#4A7A5D" transform="translate(631,321)"/>
<path d="M0 0 C0.78503906 0.4125 1.57007813 0.825 2.37890625 1.25 C10.26527059 5.94712394 17.1808828 13.45224626 19.59375 22.46875 C21.4523958 34.04954303 19.97240625 44.48586747 13.42578125 54.37890625 C7.6281642 61.50092066 -1.32697751 68.14890635 -10.61669922 69.33374023 C-24.63203654 70.15754611 -35.35380001 70.00502314 -46.53125 60.94921875 C-53.83988785 54.26940851 -58.47961078 46.21832181 -59.30859375 36.3125 C-59.76554635 25.17994365 -58.18651033 17.23884576 -50.84375 8.40625 C-37.95908037 -5.18442893 -16.82824283 -8.96012929 0 0 Z " fill="#FAFBFA" transform="translate(211,259)"/>
<path d="M0 0 C7.26 -0.04125 14.52 -0.0825 22 -0.125 C24.27648437 -0.14320801 26.55296875 -0.16141602 28.8984375 -0.18017578 C30.72395594 -0.18602275 32.54947701 -0.19111782 34.375 -0.1953125 C35.77105469 -0.2106604 35.77105469 -0.2106604 37.1953125 -0.22631836 C46.40767036 -0.22875807 54.63265874 1.21497091 61.8125 7.4375 C65.19524161 11.40014017 65.35337277 14.62615242 65.28515625 19.83984375 C64.64821968 24.66485637 62.38771741 28.69391302 58.875 32 C57 33 57 33 55 33 C55 33.66 55 34.32 55 35 C55.721875 35.061875 56.44375 35.12375 57.1875 35.1875 C62.08018222 36.60094153 65.31653147 40.7961527 68 45 C69.06833574 51.1982722 68.38016002 56.91960622 65.1875 62.3515625 C61.36545882 67.65715913 56.15002601 69.53363991 50 71 C46.05349698 71.37751228 42.14513057 71.35179658 38.18359375 71.29296875 C37.20974731 71.28994751 36.23590088 71.28692627 35.23254395 71.28381348 C31.6340864 71.26825152 28.03578127 71.22636873 24.4375 71.1875 C16.373125 71.125625 8.30875 71.06375 0 71 C0 47.57 0 24.14 0 0 Z " fill="#FAFBFB" transform="translate(655,256)"/>
<path d="M0 0 C1.09453491 1.23049072 1.09453491 1.23049072 2.21118164 2.48583984 C5.70871838 5.63891988 7.41060006 5.64282632 12.05859375 5.6640625 C12.72536636 5.66884613 13.39213898 5.67362976 14.07911682 5.67855835 C15.48351411 5.68194697 16.88799139 5.67281676 18.29223633 5.65185547 C20.42905746 5.62510569 22.5606083 5.65160418 24.69726562 5.68359375 C32.76857244 5.97757897 32.76857244 5.97757897 39.69140625 2.47265625 C40.45324219 1.65667969 41.21507812 0.84070313 42 0 C45.92221835 -0.80405476 49.44257712 0.1273336 52.91015625 2.0703125 C55.57089275 4.27186752 56.80170412 6.03772696 57.50390625 9.4453125 C57.80948111 16.04967228 57.80948111 16.04967228 54.95703125 19.3984375 C51.80424014 23.58957299 52.93368108 27.2715988 53.43359375 32.28125 C54.1162011 36.76292035 55.16535279 41.04229063 56.4765625 45.37890625 C57.07870393 48.394107 56.90079991 50.06664752 56 53 C54.25683594 54.80175781 54.25683594 54.80175781 51.984375 56.453125 C51.15107666 57.06865234 50.31777832 57.68417969 49.45922852 58.31835938 C48.56518311 58.95580078 47.6711377 59.59324219 46.75 60.25 C45.84499756 60.90806641 44.93999512 61.56613281 44.00756836 62.24414062 C42.18980406 63.56168438 40.36749938 64.87298851 38.54052734 66.17773438 C36.32624122 67.76599419 34.13738463 69.38133808 31.95703125 71.015625 C30.82642607 71.84498546 29.69499288 72.67321906 28.5625 73.5 C27.11037109 74.56734375 27.11037109 74.56734375 25.62890625 75.65625 C23 77 23 77 20.60546875 77.01953125 C16.95449104 75.5908878 13.91382507 73.45828479 10.75 71.1875 C9.33879081 70.18584681 7.927323 69.1845579 6.515625 68.18359375 C5.78279297 67.6613623 5.04996094 67.13913086 4.29492188 66.60107422 C1.95087774 64.96572938 -0.42971978 63.40198131 -2.828125 61.84765625 C-3.99939941 61.07095581 -3.99939941 61.07095581 -5.19433594 60.27856445 C-6.70661568 59.27598255 -8.23053793 58.29069906 -9.76660156 57.32495117 C-11.73655369 55.99428417 -13.40678144 54.76426164 -15 53 C-16.14309446 46.75407211 -13.82410136 40.13248325 -12.33398438 34.02734375 C-11.19600808 29.05219126 -10.67888857 25.05468719 -12 20 C-12.98997569 18.99007518 -13.98916086 17.98904207 -15 17 C-15.29296875 14.30078125 -15.29296875 14.30078125 -15.1875 11.3125 C-15.16042969 10.31863281 -15.13335937 9.32476562 -15.10546875 8.30078125 C-15.07066406 7.54152344 -15.03585938 6.78226562 -15 6 C-14.01 5.67 -13.02 5.34 -12 5 C-11.67 4.01 -11.34 3.02 -11 2 C-7.34200087 0.42040947 -3.96292867 -0.71129489 0 0 Z " fill="#EAEEEB" transform="translate(200,365)"/>
<path d="M0 0 C19 0 19 0 23.9375 4.625 C25.30479682 6.74157548 26.65781265 8.86741343 28 11 C29.98539282 13.48514533 32.08371292 15.86487199 34.1875 18.25 C35.63623315 19.92914273 37.08076138 21.61182948 38.52490234 23.29492188 C39.57360129 24.50712204 40.63231224 25.71069205 41.69775391 26.90820312 C42.24737793 27.53146484 42.79700195 28.15472656 43.36328125 28.796875 C43.86770752 29.36245117 44.37213379 29.92802734 44.8918457 30.51074219 C46 32 46 32 46 34 C46.66 34 47.32 34 48 34 C48 22.78 48 11.56 48 0 C54.93 0 61.86 0 69 0 C69 23.43 69 46.86 69 71 C50 71 50 71 45.375 66.6875 C44.2233237 64.80775248 43.09897458 62.91103739 42 61 C40.55369833 59.16116837 39.07331225 57.34870733 37.5625 55.5625 C35.19611265 52.68257373 32.83742464 49.79805092 30.5 46.89453125 C29.695625 45.89808594 28.89125 44.90164063 28.0625 43.875 C26.96615234 42.50988281 26.96615234 42.50988281 25.84765625 41.1171875 C24.17385261 38.92865845 24.17385261 38.92865845 22 38 C22 49.22 22 60.44 22 72 C14.74 72 7.48 72 0 72 C0 48.24 0 24.48 0 0 Z " fill="#F8FAF9" transform="translate(71,256)"/>
<path d="M0 0 C7.26 0 14.52 0 22 0 C22 8.58 22 17.16 22 26 C30.58 26 39.16 26 48 26 C48 17.42 48 8.84 48 0 C55.26 0 62.52 0 70 0 C70 23.76 70 47.52 70 72 C62.74 72 55.48 72 48 72 C48 63.09 48 54.18 48 45 C39.75 45 31.5 45 23 45 C23.01160156 46.86527344 23.02320313 48.73054688 23.03515625 50.65234375 C23.04453225 53.08072817 23.05363265 55.50911367 23.0625 57.9375 C23.07087891 59.16919922 23.07925781 60.40089844 23.08789062 61.66992188 C23.09272461 63.4246582 23.09272461 63.4246582 23.09765625 65.21484375 C23.10551147 66.84087524 23.10551147 66.84087524 23.11352539 68.49975586 C23 71 23 71 22 72 C14.74 72 7.48 72 0 72 C0 48.24 0 24.48 0 0 Z " fill="#F7F9F8" transform="translate(487,256)"/>
<path d="M0 0 C7.26 0 14.52 0 22 0 C22.02578125 3.16722656 22.0515625 6.33445312 22.078125 9.59765625 C22.11658262 12.6790439 22.16173098 15.76026632 22.20751953 18.84155273 C22.23567349 20.97623756 22.25691565 23.11102556 22.27099609 25.24584961 C22.29250253 28.32198694 22.33919337 31.39689114 22.390625 34.47265625 C22.39185364 35.42084732 22.39308228 36.36903839 22.39434814 37.34596252 C22.52692948 43.39997958 23.48304998 47.03117026 27 52 C30.34042786 54.64930485 33.86696196 54.3625472 38 54 C41.29281042 52.65294119 42.66534275 51.5128804 44.60864258 48.53466797 C46.46930734 43.80775018 46.47795724 39.60740159 46.51171875 34.5703125 C46.52966995 33.57998016 46.54762115 32.58964783 46.56611633 31.56930542 C46.62008901 28.42124629 46.65407356 25.27333767 46.6875 22.125 C46.72068454 19.98435412 46.75517525 17.84372806 46.79101562 15.703125 C46.87825554 10.46872989 46.9384366 5.23501146 47 0 C54.26 0 61.52 0 69 0 C69.11579184 5.99287093 69.2150182 11.98174839 69.2746582 17.97485352 C69.29955858 20.00656396 69.33349189 22.03818716 69.37719727 24.06958008 C69.67316109 38.19575926 69.68835092 51.76724464 60.875 63.625 C54.17861428 70.35069156 45.10661857 72.8907694 35.875 73.1875 C24.72841341 72.98108173 16.5760017 71.016968 8.25390625 63.40234375 C0.9819093 55.73138438 -0.60210169 46.74972814 -0.390625 36.5234375 C-0.38496521 35.47217682 -0.37930542 34.42091614 -0.37347412 33.33779907 C-0.35128043 30.016381 -0.30111589 26.69608591 -0.25 23.375 C-0.22991303 21.10808862 -0.21166614 18.84116014 -0.1953125 16.57421875 C-0.15489181 11.04871008 -0.07656714 5.52559551 0 0 Z " fill="#F9FAF9" transform="translate(571,256)"/>
<path d="M0 0 C19.14 0 38.28 0 58 0 C58 5.28 58 10.56 58 16 C46.12 16 34.24 16 22 16 C22 19.63 22 23.26 22 27 C32.23 27 42.46 27 53 27 C53 32.28 53 37.56 53 43 C42.77 43 32.54 43 22 43 C22 46.96 22 50.92 22 55 C34.21 55 46.42 55 59 55 C59 60.61 59 66.22 59 72 C39.53 72 20.06 72 0 72 C0 48.24 0 24.48 0 0 Z " fill="#F7F9F8" transform="translate(319,256)"/>
<path d="M0 0 C7.59 0 15.18 0 23 0 C25.6000954 5.2001908 27.68761189 9.61181912 29.5 15 C31.0813311 19.54572244 32.7604761 23.81002839 35.0234375 28.05078125 C36.63659877 31.27065115 37.8802274 34.63565319 39.16796875 37.99609375 C39.83467323 39.9619739 39.83467323 39.9619739 41 41 C41.40839111 40.00669678 41.81678223 39.01339355 42.23754883 37.98999023 C43.76339503 34.27916384 45.28992343 30.5686184 46.81665039 26.8581543 C47.47536313 25.25699304 48.1338947 23.65575724 48.79223633 22.05444336 C49.74251614 19.74312691 50.69346283 17.43208579 51.64453125 15.12109375 C51.9352803 14.41351425 52.22602936 13.70593475 52.52558899 12.97691345 C52.80565292 12.2967366 53.08571686 11.61655975 53.37426758 10.91577148 C53.61631424 10.32730942 53.8583609 9.73884735 54.10774231 9.1325531 C55.38498956 6.07985027 56.69646901 3.0415723 58 0 C65.26 0 72.52 0 80 0 C72.77951821 18.16766385 65.40743637 36.26938479 57.98291016 54.35449219 C57.59572311 55.29859955 57.20853607 56.24270691 56.80961609 57.21542358 C56.07464406 59.00746258 55.33885167 60.79916541 54.60212708 62.59048462 C54.27379379 63.39126434 53.94546051 64.19204407 53.60717773 65.01708984 C53.31979233 65.71667816 53.03240692 66.41626648 52.73631287 67.13705444 C52.10364433 68.73776944 51.54429385 70.36711844 51 72 C43.41 72 35.82 72 28 72 C27.2575 69.855 26.515 67.71 25.75 65.5 C24.11617787 60.86039133 22.32597849 56.44094738 20.0234375 52.09375 C18.1982531 48.35978498 16.81768706 44.44817981 15.3515625 40.5625 C10.93083896 28.91018824 6.27099383 17.3159745 1.1875 5.9375 C0 3 0 3 0 0 Z " fill="#F8FAF9" transform="translate(233,256)"/>
<path d="M0 0 C6.93 0 13.86 0 21 0 C21 18.15 21 36.3 21 55 C31.89 55 42.78 55 54 55 C54 60.28 54 65.56 54 71 C36.18 71 18.36 71 0 71 C0 47.57 0 24.14 0 0 Z " fill="#FCFDFD" transform="translate(390,256)"/>
<path d="M0 0 C0.40557129 0.65935547 0.81114258 1.31871094 1.22900391 1.99804688 C2.9472668 4.37282314 2.9472668 4.37282314 6.47412109 4.51757812 C7.90699064 4.54397725 9.34041188 4.54704914 10.7734375 4.53125 C11.53419586 4.5350769 12.29495422 4.53890381 13.07876587 4.54284668 C14.68761518 4.54556729 16.29650861 4.53819548 17.90527344 4.52148438 C20.35973706 4.50013277 22.81125425 4.52124703 25.265625 4.546875 C26.8307356 4.54423059 28.39584437 4.53910326 29.9609375 4.53125 C30.69130219 4.53934692 31.42166687 4.54744385 32.17416382 4.55578613 C37.15766019 4.46480849 39.32939554 3.24023554 43 0 C46.6875 0 46.6875 0 50 1 C51.9575387 3.29798022 52.00063889 5.00511112 52.375 8 C52 11 52 11 49.96875 12.7734375 C47.69510598 14.89458153 47.69510598 14.89458153 47.7578125 18.1015625 C47.87898438 19.26429688 48.00015625 20.42703125 48.125 21.625 C48.25003906 22.86507813 48.37507813 24.10515625 48.50390625 25.3828125 C48.92539401 28.45602245 49.43050419 31.46457488 50.0625 34.5 C50.22621094 35.29019531 50.38992187 36.08039063 50.55859375 36.89453125 C50.70425781 37.58933594 50.84992188 38.28414063 51 39 C51.625 42.1875 51.625 42.1875 51 45 C47.26625298 49.27618 43.34480944 52.09047088 38 54 C37.28935663 50.85894725 36.61090582 47.71172787 35.9375 44.5625 C35.73833984 43.68400391 35.53917969 42.80550781 35.33398438 41.90039062 C35.15029297 41.02705078 34.96660156 40.15371094 34.77734375 39.25390625 C34.51812134 38.06776733 34.51812134 38.06776733 34.25366211 36.85766602 C34 34 34 34 35 25 C25.43 25 15.86 25 6 25 C5.67 26.32 5.34 27.64 5 29 C5.66 29.66 6.32 30.32 7 31 C7.37693115 36.33761436 6.55554611 41.24059954 5.5 46.4375 C5.28537109 47.53481445 5.28537109 47.53481445 5.06640625 48.65429688 C4.71678704 50.43735486 4.35922312 52.21885203 4 54 C-1.45604156 51.98068213 -6.19298061 49.49463083 -10 45 C-10.75518123 41.46728781 -9.86406273 38.46082268 -9 35 C-8.60815381 33.06463787 -8.21673717 31.12916383 -7.83691406 29.19140625 C-7.45247995 27.26265613 -7.03738824 25.34009401 -6.62109375 23.41796875 C-6.08420883 20.46341338 -5.66729503 17.9785016 -6 15 C-6.825 14.195625 -7.65 13.39125 -8.5 12.5625 C-11 10 -11 10 -11.5625 6.9375 C-11 4 -11 4 -9.4375 1.625 C-6.07941451 -0.61372366 -3.95254396 -0.57491549 0 0 Z " fill="#4E7E65" transform="translate(200,370)"/>
<path d="M0 0 C4.875 0.875 4.875 0.875 6 2 C6.52036404 9.28509649 6.4978379 15.94771119 3.80078125 22.7734375 C1.82294182 28.27279592 1 34.18102137 1 40 C2.2065625 38.453125 2.2065625 38.453125 3.4375 36.875 C7.90604087 31.70034536 12.83248702 27.53686661 19.6875 26.375 C23.67514901 27.12738661 25.89700589 28.40214446 29 31 C31.95152225 35.74062991 31.63949151 40.60134536 31 46 C28.43186008 55.96199391 23.39745028 65.45955818 14.8125 71.5 C9.58809348 74.28635014 5.04189137 76.13953157 -1 75 C-5.66886862 72.03706414 -9.22910418 68.36271276 -11 63 C-13.10666557 48.7977602 -8.83958483 31.94551661 -6 18 C-5.77441406 16.80503906 -5.54882812 15.61007812 -5.31640625 14.37890625 C-5.06761719 13.11949219 -4.81882812 11.86007812 -4.5625 10.5625 C-4.33691406 9.40878906 -4.11132812 8.25507813 -3.87890625 7.06640625 C-3.01536793 4.053617 -2.05370442 2.32829443 0 0 Z " fill="#F2F5F3" transform="translate(302,350)"/>
<path d="M0 0 C2.70907888 2.45510273 2.95453922 3.65579694 3.4375 7.3125 C2.68643327 13.64291959 0.02981099 17.3134627 -4.6875 21.3125 C-5.28949219 21.78300781 -5.89148438 22.25351562 -6.51171875 22.73828125 C-8.13884196 23.95013837 -8.13884196 23.95013837 -9 26 C-8.278125 26.0825 -7.55625 26.165 -6.8125 26.25 C-2.74742468 27.33402009 -0.14804898 29.41459903 2.3125 32.8125 C3.76908051 37.44707435 3.46443841 41.51701302 1.5625 45.9375 C-3.18324297 54.49974956 -11.76549289 60.21930108 -21 63 C-24.3974513 63.44213407 -27.62045068 63.62829195 -31 63 C-31.66 62.34 -32.32 61.68 -33 61 C-32.67028521 57.70285207 -32.3773161 56.3773161 -30 54 C-27.86328125 53.5078125 -27.86328125 53.5078125 -25.3125 53.125 C-18.90186469 51.94092883 -12.9409719 49.45673032 -9 44 C-8.38679733 41.29775094 -8.18547607 38.78214098 -8 36 C-11.45245925 32.82373749 -14.3729033 32.31370147 -19 32 C-20.258125 32.185625 -21.51625 32.37125 -22.8125 32.5625 C-23.864375 32.706875 -24.91625 32.85125 -26 33 C-28 31 -28 31 -28.01171875 29.11328125 C-26.4512751 25.85382174 -23.92979851 24.91698426 -20.8125 23.1875 C-15.66302341 20.19182357 -10.99329002 17.30628686 -8 12 C-7.04832621 8.73860648 -7.04832621 8.73860648 -7 6 C-12.92329657 4.02556781 -18.47184403 5.13642149 -24.4375 6.5 C-25.67371094 6.7784375 -26.90992188 7.056875 -28.18359375 7.34375 C-29.11300781 7.5603125 -30.04242188 7.776875 -31 8 C-32.86125111 20.63829775 -34.41020923 33.10840555 -34.44506836 45.90283203 C-34.52739766 50.10595951 -34.65124191 52.42407588 -36.87109375 56.08984375 C-39 58 -39 58 -41.625 58.4375 C-44 58 -44 58 -46 56 C-46.97728769 48.42121092 -45.46367425 40.45155459 -44.5 32.9375 C-42.68152497 18.96583067 -42.68152497 18.96583067 -44 5 C-39.49763783 0.58258806 -34.77355053 -0.41411976 -28.8125 -1.75 C-27.46961914 -2.08064453 -27.46961914 -2.08064453 -26.09960938 -2.41796875 C-16.77742615 -4.58529222 -8.20412402 -5.68583175 0 0 Z " fill="#F2F5F3" transform="translate(463,364)"/>
<path d="M0 0 C1.125 1.875 1.125 1.875 2 4 C4.53188648 5.75322937 4.53188648 5.75322937 7 7 C6.83886719 8.09828125 6.67773438 9.1965625 6.51171875 10.328125 C5.8717781 15.47030298 5.81614017 20.57367166 5.8125 25.75 C5.79413086 27.14798828 5.79413086 27.14798828 5.77539062 28.57421875 C5.77345703 29.47269531 5.77152344 30.37117188 5.76953125 31.296875 C5.76542236 32.10479492 5.76131348 32.91271484 5.75708008 33.74511719 C6.02854029 36.2649227 6.65632377 37.86027905 8 40 C8.99 40.495 8.99 40.495 10 41 C9.25 45.75 9.25 45.75 7 48 C4.0625 48.375 4.0625 48.375 1 48 C-2.21828003 44.78171997 -2.98577642 41.83919117 -3.0625 37.3125 C-3.041875 36.219375 -3.02125 35.12625 -3 34 C-3.680625 34.70125 -4.36125 35.4025 -5.0625 36.125 C-16.20743997 47.26993997 -16.20743997 47.26993997 -22.4375 47.375 C-25.69464477 47.30097398 -26.72183558 47.19970779 -29.4375 45.25 C-29.953125 44.5075 -30.46875 43.765 -31 43 C-31.4125 42.4225 -31.825 41.845 -32.25 41.25 C-34.71478316 33.85565053 -32.25111004 27.67439725 -29 21 C-24.79288063 12.67527445 -18.96667101 4.14187482 -10.375 -0.125 C-6.43541375 -1.14637421 -3.90467816 -1.14843475 0 0 Z " fill="#F2F5F3" transform="translate(547,377)"/>
<path d="M0 0 C3.03904144 3.03904144 1.24900729 14.3079586 1.2510376 18.79116821 C1.18146052 54.55331029 1.18146052 54.55331029 -10.09765625 67.38671875 C-15.06786841 71.83375068 -18.442999 73.46072384 -25.125 73.421875 C-31.19692565 72.53088591 -38.13159127 68.88094524 -42 64 C-41.6875 61.3125 -41.6875 61.3125 -41 59 C-38.8125 58.25 -38.8125 58.25 -36 58 C-33.375 59.875 -33.375 59.875 -31 62 C-27.27385089 63.2420497 -23.86535125 63.65809307 -20 63 C-11.81777446 56.99970127 -10.56903057 46.41418339 -9 37 C-8.95335162 35.33398628 -8.93401404 33.66535991 -9 32 C-9.40089844 32.44730469 -9.80179687 32.89460938 -10.21484375 33.35546875 C-15.45658802 38.93002218 -21.33895152 44.11787834 -29.3125 44.5625 C-33 44 -33 44 -35.375 42.3125 C-39.61947134 36.27229078 -39.65865515 30.28016075 -38.56054688 23.14428711 C-37.96553345 20.10379838 -37.30969606 17.08400986 -36.625 14.0625 C-36.40328125 13.02287109 -36.1815625 11.98324219 -35.953125 10.91210938 C-34.26051457 3.26051457 -34.26051457 3.26051457 -32 1 C-26.54545455 1.45454545 -26.54545455 1.45454545 -24 4 C-24.23600496 7.93341597 -24.95263894 10.89391124 -26.5625 14.5 C-29.05108492 20.58857671 -28.22712077 27.53967576 -28 34 C-23.11501596 33.54724538 -20.06633012 32.86260967 -16.25 29.75 C-15.14398438 28.87601562 -15.14398438 28.87601562 -14.015625 27.984375 C-8.26202871 22.31998176 -8.55741093 17.03378219 -8.47265625 9.41796875 C-8.45074219 8.63808594 -8.42882812 7.85820312 -8.40625 7.0546875 C-8.39916016 6.34812012 -8.39207031 5.64155273 -8.38476562 4.91357422 C-7.43912021 0.21054838 -4.32728726 -0.45550392 0 0 Z " fill="#F1F4F2" transform="translate(378,378)"/>
<path d="M0 0 C3.1859229 2.51910183 3.54761597 3.16579526 4.125 7.125 C3.98686742 12.65030335 1.15797776 16.99095097 -2.3125 21.125 C-5.77852003 23.8721418 -9.4180624 26.04179415 -13.3125 28.125 C-13.96347656 28.4859375 -14.61445313 28.846875 -15.28515625 29.21875 C-17.38166152 30.33139162 -18.90954967 31.125 -21.3125 31.125 C-20.34473902 34.92047921 -20.34473902 34.92047921 -18.3125 38.125 C-12.8317878 39.09146487 -9.00659176 38.33522563 -4.375 35.25 C-2.16794736 33.63850125 -0.24617304 32.05867304 1.6875 30.125 C4.3125 30 4.3125 30 6.6875 30.125 C6.74514897 32.94979965 6.71039851 34.54268267 5.6875 37.125 C2.9806671 39.91713225 -0.06484514 42.00553553 -3.3125 44.125 C-4.22 44.764375 -5.1275 45.40375 -6.0625 46.0625 C-12.0367786 48.01562954 -19.29676556 48.54743565 -25.0703125 45.82421875 C-29.1528507 42.73030914 -30.92504643 38.76398934 -31.6640625 33.73046875 C-32.03984378 22.88405439 -28.22902684 14.33151399 -21.3125 6.125 C-15.15207913 -0.19632738 -8.73207795 -4.94268563 0 0 Z " fill="#F1F4F2" transform="translate(503.3125,377.875)"/>
<path d="M0 0 C3.69407989 1.5470315 5.5928938 3.37710865 7.75 6.8125 C8.3275 7.699375 8.905 8.58625 9.5 9.5 C11.57693565 15.00387948 11.71494012 19.93417433 9.8359375 25.5390625 C7.36141892 30.95107411 5.0886247 34.14318765 -0.25 36.8125 C-5.23079383 38.47276461 -9.55273629 38.41153425 -14.4375 36.6875 C-18.89102118 33.71848588 -22.26526835 29.84458512 -24.25 24.8125 C-24.88102818 18.72234435 -25.19147007 12.87649207 -22.625 7.25 C-15.71401031 0.15714216 -9.94107058 -3.29507396 0 0 Z " fill="#B5D164" transform="translate(198.25,273.1875)"/>
<path d="M0 0 C6.6 0 13.2 0 20 0 C20 11.22 20 22.44 20 34 C15.71 34 11.42 34 7 34 C7.02618408 35.32128906 7.05236816 36.64257812 7.0793457 38.00390625 C7.17021473 42.93130392 7.22738275 47.8586283 7.2746582 52.78662109 C7.29971889 54.91467771 7.33377691 57.04264897 7.37719727 59.17041016 C7.43822089 62.23882163 7.46629474 65.30608995 7.48828125 68.375 C7.51408768 69.31802979 7.5398941 70.26105957 7.56648254 71.23266602 C7.56912504 77.5323782 6.37628372 82.26392176 2 87 C1.34 87 0.68 87 0 87 C0 58.29 0 29.58 0 0 Z " fill="#4B7B5F" transform="translate(611,222)"/>
<path d="M0 0 C1 1 1 1 1.25 4.1875 C1.20319586 10.58796573 -0.53786168 16.80331853 -2 23 C-1.34 23 -0.68 23 0 23 C0.09152344 22.28585937 0.18304687 21.57171875 0.27734375 20.8359375 C2.3132702 12.8463018 10.00741022 4.2826102 17 0 C20.6875 -0.75 20.6875 -0.75 24 0 C26.9375 2.0625 26.9375 2.0625 29 5 C29.4375 8.6875 29.4375 8.6875 29 12 C28.34 12.66 27.68 13.32 27 14 C25 13.875 25 13.875 23 13 C21.75 10.9375 21.75 10.9375 21 9 C13.94838819 10.86660313 10.46424609 17.07120492 6.8125 22.9375 C2.97133066 29.59418614 0.73411384 35.30106993 0.40625 43.01953125 C-0.1126902 45.54936475 -0.94078444 46.47375788 -3 48 C-6.0625 47.875 -6.0625 47.875 -9 47 C-11.12892003 43.80661996 -11.2556971 42.97588795 -11.265625 39.30859375 C-11.26973389 38.37176758 -11.27384277 37.43494141 -11.27807617 36.46972656 C-11.26881104 35.4690918 -11.2595459 34.46845703 -11.25 33.4375 C-11.24395752 32.41495117 -11.23791504 31.39240234 -11.23168945 30.33886719 C-11.14755286 23.78131203 -10.85239803 17.2748208 -10.1875 10.75 C-10.11756836 10.0067749 -10.04763672 9.2635498 -9.97558594 8.49780273 C-9.63548397 5.61743714 -9.30333576 3.43309129 -7.62109375 1.03125 C-5.10329569 -0.57043358 -2.89898972 -0.25208606 0 0 Z " fill="#F2F4F2" transform="translate(576,378)"/>
<path d="M0 0 C6.6 0 13.2 0 20 0 C20 10.56 20 21.12 20 32 C11.6875 34.4375 11.6875 34.4375 9.08081055 35.20092773 C8.05661011 35.50172241 8.05661011 35.50172241 7.01171875 35.80859375 C6.31522217 36.01282959 5.61872559 36.21706543 4.90112305 36.42749023 C3.25826234 36.92222612 1.62769144 37.45743619 0 38 C0 25.46 0 12.92 0 0 Z " fill="#4B7C5E" transform="translate(169,222)"/>
<path d="M0 0 C5.28 0 10.56 0 16 0 C16.86474441 4.08135422 17.71717196 8.16462151 18.5625 12.25 C18.80935547 13.40886719 19.05621094 14.56773437 19.31054688 15.76171875 C19.65375977 17.43427734 19.65375977 17.43427734 20.00390625 19.140625 C20.32597046 20.68024902 20.32597046 20.68024902 20.65454102 22.25097656 C20.9903529 24.9232323 21.08652116 26.54179452 20 29 C17 30 17 30 14.95703125 29.00390625 C14.24933594 28.52824219 13.54164063 28.05257813 12.8125 27.5625 C12.09707031 27.08941406 11.38164062 26.61632812 10.64453125 26.12890625 C9.83048828 25.57009766 9.83048828 25.57009766 9 25 C9.75798782 21.14689526 10.8920558 20.33095815 14 18 C14.33 16.68 14.66 15.36 15 14 C10.38 14 5.76 14 1 14 C2.44017057 18.87647451 2.44017057 18.87647451 5.125 20.5625 C5.74375 21.036875 6.3625 21.51125 7 22 C7 23.32 7 24.64 7 26 C3.14243493 28.15305957 0.44870215 29.39253254 -4 29 C-5.29187843 24.71236667 -4.51636329 21.06308951 -3.6875 16.75 C-3.55666016 16.02425781 -3.42582031 15.29851562 -3.29101562 14.55078125 C-2.38590539 9.64482145 -1.25093752 4.82894657 0 0 Z " fill="#5A856E" transform="translate(213,400)"/>
<path d="M0 0 C0 12.21 0 24.42 0 37 C-7.89121482 35.8726836 -7.89121482 35.8726836 -10.3125 32.6875 C-10.78300781 32.09324219 -11.25351563 31.49898438 -11.73828125 30.88671875 C-15.95719244 24.57794444 -15.69452137 18.45742323 -15 11 C-11.9986332 4.42008047 -7.31301531 0 0 0 Z " fill="#4D7C61" transform="translate(189,273)"/>
<path d="M0 0 C1 1 1 1 1.5 4.6875 C1.41260662 12.47799591 -3.0099281 20.24762405 -7.77734375 26.23046875 C-10.78009091 29.0970369 -12.58515616 29.93085936 -16.75 30.625 C-20 30 -20 30 -21.9375 28.375 C-23.2960969 25.33813633 -23.25996203 23.31451585 -23 20 C-19.01690872 11.11168698 -10.64397335 -0.54584479 0 0 Z " fill="#4E7E66" transform="translate(323,386)"/>
<path d="M0 0 C0.763125 0.20625 1.52625 0.4125 2.3125 0.625 C3.28124346 8.57484715 2.02350724 13.55544324 -2.6171875 20.09375 C-8.69821959 27.52867226 -8.69821959 27.52867226 -12.6875 29.625 C-15.4296875 29.296875 -15.4296875 29.296875 -17.6875 28.625 C-18.67948393 20.02780598 -15.03495433 13.25684928 -10.05859375 6.37109375 C-4.25679614 -0.59397155 -4.25679614 -0.59397155 0 0 Z " fill="#4E7D66" transform="translate(541.6875,385.375)"/>
<path d="M0 0 C3.04263267 -0.10845027 6.08136204 -0.18752063 9.125 -0.25 C9.9809375 -0.28351563 10.836875 -0.31703125 11.71875 -0.3515625 C17.44593687 -0.43967307 20.68462219 0.11057372 25 4 C25.67260727 8.11971953 25.33458635 9.49812047 23 13 C20.11734851 13.96088383 18.32337729 14.11670941 15.33203125 14.09765625 C14.43935547 14.09443359 13.54667969 14.09121094 12.62695312 14.08789062 C11.23379883 14.07532227 11.23379883 14.07532227 9.8125 14.0625 C8.40194336 14.05573242 8.40194336 14.05573242 6.96289062 14.04882812 C4.64189992 14.03704645 2.32094193 14.01911114 0 14 C0 9.38 0 4.76 0 0 Z " fill="#53806A" transform="translate(676,298)"/>
<path d="M0 0 C5.28 0 10.56 0 16 0 C16 8.25 16 16.5 16 25 C12.37 25 8.74 25 5 25 C5 17.08 5 9.16 5 1 C3.35 1 1.7 1 0 1 C0 0.67 0 0.34 0 0 Z " fill="#B6D266" transform="translate(184,328)"/>
<path d="M0 0 C2.56314499 -0.08132187 5.12368418 -0.14064175 7.6875 -0.1875 C8.40873047 -0.21263672 9.12996094 -0.23777344 9.87304688 -0.26367188 C14.48087064 -0.32679275 17.31351222 0.20165268 21 3 C22 4 22 4 22.375 6.3125 C22 9 22 9 20.02734375 11.15234375 C15.94821519 13.64192802 12.85737889 13.45354879 8.1875 13.25 C7.00510742 13.22292969 7.00510742 13.22292969 5.79882812 13.1953125 C3.86535739 13.14844048 1.93251715 13.0767041 0 13 C0 8.71 0 4.42 0 0 Z " fill="#527F6B" transform="translate(676,271)"/>
<path d="M0 0 C5.28 0 10.56 0 16 0 C17.5456757 4.63702711 17.05735628 9.12471651 17 14 C11.06 14 5.12 14 -1 14 C-0.67 9.38 -0.34 4.76 0 0 Z " fill="#4A7860" transform="translate(213,400)"/>
<path d="M0 0 C4.95933372 2.47966686 6.8560153 4.95235099 9 10 C10.38904869 16.7688563 8.56719931 21.95533961 5.484375 27.96875 C4 30 4 30 0 32 C0 21.44 0 10.88 0 0 Z " fill="#528064" transform="translate(200,276)"/>
<path d="M0 0 C4.70462455 0.63576007 4.70462455 0.63576007 6.23461914 2.52246094 C8.97687691 4.81759909 11.41872667 4.35424612 14.93359375 4.328125 C15.60793961 4.32625183 16.28228546 4.32437866 16.97706604 4.32244873 C18.40183462 4.31573352 19.82658493 4.30182932 21.2512207 4.28125 C23.42611947 4.25016267 25.60029189 4.24028359 27.77539062 4.234375 C35.47871251 4.3736093 35.47871251 4.3736093 43 3 C42.125 7.875 42.125 7.875 41 9 C38.44150565 9.1257339 35.91145414 9.18863887 33.3515625 9.203125 C32.5832309 9.20882507 31.81489929 9.21452515 31.02328491 9.22039795 C29.39411807 9.2298618 27.76493197 9.23638741 26.13574219 9.24023438 C23.64223797 9.24993295 21.14956029 9.28093911 18.65625 9.3125 C17.07552574 9.31903051 15.49479557 9.32428079 13.9140625 9.328125 C13.16710114 9.3404718 12.42013977 9.3528186 11.65054321 9.36553955 C6.49073088 9.34333142 6.49073088 9.34333142 4.00537109 7.60449219 C3 6 3 6 3 4 C1.68 3.67 0.36 3.34 -1 3 C-0.67 2.01 -0.34 1.02 0 0 Z " fill="#F1F4F1" transform="translate(197,366)"/>
<path d="M0 0 C0.4342859 2.96762034 0.50360386 5.14946903 -1.0546875 7.78125 C-4.64461038 12.20558739 -8.87681097 15.49609905 -14 18 C-14.66 18 -15.32 18 -16 18 C-15.41328641 14.10254545 -14.25781975 11.25931473 -12.25 7.875 C-11.51523437 6.60269531 -11.51523437 6.60269531 -10.765625 5.3046875 C-7.63735102 1.22132103 -5.12466959 0 0 0 Z " fill="#54806A" transform="translate(498,384)"/>
<path d="M0 0 C2.04219706 1.69179328 2.91793306 2.63727666 3.51171875 5.26171875 C3.59873047 6.46248047 3.59873047 6.46248047 3.6875 7.6875 C3.78611328 8.89986328 3.78611328 8.89986328 3.88671875 10.13671875 C3.92410156 10.75160156 3.96148437 11.36648438 4 12 C2.265625 13.1484375 2.265625 13.1484375 0 14 C-2.140625 13.1015625 -2.140625 13.1015625 -4.25 11.625 C-4.95640625 11.14289063 -5.6628125 10.66078125 -6.390625 10.1640625 C-6.92171875 9.77992188 -7.4528125 9.39578125 -8 9 C-7.61479436 6.46089803 -7.29902057 5.27248877 -5.37109375 3.515625 C-4.73300781 3.09796875 -4.09492188 2.6803125 -3.4375 2.25 C-2.79683594 1.82203125 -2.15617188 1.3940625 -1.49609375 0.953125 C-1.00238281 0.63859375 -0.50867188 0.3240625 0 0 Z " fill="#57836B" transform="translate(230,416)"/>
<path d="M0 0 C0.33 0 0.66 0 1 0 C1.10137822 6.90498319 1.1714562 13.80977465 1.21972656 20.71533203 C1.23984814 23.06468884 1.26714851 25.41399554 1.30175781 27.76318359 C1.3502504 31.13912315 1.37296357 34.51440086 1.390625 37.890625 C1.41127014 38.94179504 1.43191528 39.99296509 1.45318604 41.07598877 C1.45544041 48.39384462 1.45544041 48.39384462 -1.02441406 51.69433594 C-2.0023291 52.34063965 -2.0023291 52.34063965 -3 53 C-2.67854004 51.73164307 -2.35708008 50.46328613 -2.02587891 49.15649414 C-0.86556486 43.91487934 -0.65344415 38.84927698 -0.5859375 33.49609375 C-0.56657135 32.5322023 -0.5472052 31.56831085 -0.5272522 30.57521057 C-0.46799188 27.52939399 -0.42128725 24.48353851 -0.375 21.4375 C-0.33677084 19.35870847 -0.29771632 17.27993194 -0.2578125 15.20117188 C-0.16233504 10.13423802 -0.07810882 5.06723015 0 0 Z " fill="#BEDA73" transform="translate(640,256)"/>
<path d="M0 0 C-1.98 0.99 -1.98 0.99 -4 2 C-2.68 2.66 -1.36 3.32 0 4 C-0.33 4.66 -0.66 5.32 -1 6 C-2.093125 5.79375 -3.18625 5.5875 -4.3125 5.375 C-8.0838401 4.59653475 -8.0838401 4.59653475 -11 7 C-11 5.68 -11 4.36 -11 3 C-11.66 2.67 -12.32 2.34 -13 2 C-9.16001987 -2.17389144 -5.07563763 -0.9001665 0 0 Z " fill="#DCE3DE" transform="translate(251,366)"/>
<path d="M0 0 C0.66 0.33 1.32 0.66 2 1 C-3.28 6.28 -8.56 11.56 -14 17 C-14 12.08113186 -10.31173311 9.3948461 -7 6 C-4.72300284 3.91201998 -2.39497582 1.9550823 0 0 Z " fill="#DBE3DE" transform="translate(536,377)"/>
<path d="M0 0 C0.33 0 0.66 0 1 0 C1.76681614 8.77578475 1.76681614 8.77578475 -0.11328125 11.77734375 C-1.5 13.125 -1.5 13.125 -4 15 C-4.33 14.34 -4.66 13.68 -5 13 C-5.99 13.495 -5.99 13.495 -7 14 C-7.65772428 17.02934491 -7.65772428 17.02934491 -8 20 C-8.33 20 -8.66 20 -9 20 C-9.25 16.6875 -9.25 16.6875 -9 13 C-7.25 11.25 -7.25 11.25 -5 10 C-2.75 8.83333333 -2.75 8.83333333 -1 7 C-0.18685089 3.39534252 -0.18685089 3.39534252 0 0 Z " fill="#D5E0D9" transform="translate(256,372)"/>
<path d="M0 0 C-1 3 -1 3 -3.3125 4.375 C-6 5 -6 5 -8.3125 3.75 C-10 2 -10 2 -10 0 C-6.7169902 -1.6415049 -3.57454967 -0.51888624 0 0 Z " fill="#618C73" transform="translate(226,432)"/>
<path d="M0 0 C1.42944945 2.35438733 2.08661261 3.48032433 1.625 6.25 C1.41875 6.8275 1.2125 7.405 1 8 C0.01 8 -0.98 8 -2 8 C-2 7.01 -2 6.02 -2 5 C-6.29 5 -10.58 5 -15 5 C-15 4.67 -15 4.34 -15 4 C-10.38 4 -5.76 4 -1 4 C-0.67 2.68 -0.34 1.36 0 0 Z " fill="#759885" transform="translate(230,409)"/>
<path d="M0 0 C0.8971875 0.309375 0.8971875 0.309375 1.8125 0.625 C1.131875 0.975625 0.45125 1.32625 -0.25 1.6875 C-4.071158 4.20783826 -7.04469915 7.31917202 -10.1875 10.625 C-10.1875 6.30250434 -8.03834926 4.74104454 -5.1875 1.625 C-2.1875 -0.375 -2.1875 -0.375 0 0 Z " fill="#6E9480" transform="translate(541.1875,385.375)"/>
<path d="M0 0 C-0.33 1.32 -0.66 2.64 -1 4 C-1 3.34 -1 2.68 -1 2 C-5.59306496 3.4859916 -8.43569245 5.85014682 -12 9 C-11.00222417 5.40800699 -10.08216231 4.06608707 -7.125 1.6875 C-4 0 -4 0 0 0 Z " fill="#5F8873" transform="translate(498,384)"/>
<path d="M0 0 C0.99 0.33 1.98 0.66 3 1 C1.7934375 1.9590625 1.7934375 1.9590625 0.5625 2.9375 C-2.75412763 6.90127449 -2.87952582 9.97294083 -3 15 C-3.33 15 -3.66 15 -4 15 C-4 11.37 -4 7.74 -4 4 C-3.01 3.67 -2.02 3.34 -1 3 C-0.67 2.01 -0.34 1.02 0 0 Z " fill="#DCE4DF" transform="translate(189,367)"/>
<path d="M0 0 C1.98 0.99 1.98 0.99 4 2 C3.01 2.33 2.02 2.66 1 3 C1 8.28 1 13.56 1 19 C0.67 19 0.34 19 0 19 C0 12.73 0 6.46 0 0 Z " fill="#5B8671" transform="translate(93,294)"/>
<path d="M0 0 C0.66 0.33 1.32 0.66 2 1 C-0.97 3.97 -3.94 6.94 -7 10 C-7.66 9.67 -8.32 9.34 -9 9 C-6.21000549 5.51250686 -3.74764169 2.49842779 0 0 Z " fill="#E0E7E3" transform="translate(313,380)"/>
<path d="M0 0 C-0.99 1.485 -0.99 1.485 -2 3 C-2.53625 2.525625 -3.0725 2.05125 -3.625 1.5625 C-6.42842836 -0.28186076 -8.69620258 -0.62456847 -12 -1 C-12 -1.33 -12 -1.66 -12 -2 C-6.93395388 -3.3268216 -4.47171108 -2.66173278 0 0 Z " fill="#608B5F" transform="translate(372,550)"/>
<path d="M0 0 C1.32 0.33 2.64 0.66 4 1 C3.21625 1.53625 2.4325 2.0725 1.625 2.625 C-1.33426299 5.30242842 -2.04608256 7.18433025 -3 11 C-3.75 9.4375 -3.75 9.4375 -4 7 C-2.86915563 4.49713591 -1.47860484 2.32992278 0 0 Z " fill="#C1D1C8" transform="translate(302,350)"/>
</svg>
